<?xml version="1.0" encoding="UTF-8"?>
<svg version="1.1" xmlns="http://www.w3.org/2000/svg" width="512" height="512">
<path d="M0 0 C5.40564524 2.50976386 9.56503949 6.68351451 11.94140625 12.17578125 C14.4851665 19.48755587 15.18871651 26.69099188 15.5625 34.375 C15.60568359 35.20644531 15.64886719 36.03789063 15.69335938 36.89453125 C15.79861805 38.92953228 15.89973072 40.96474703 16 43 C17.20011719 42.83886719 18.40023438 42.67773438 19.63671875 42.51171875 C29.82572899 41.24565524 41.15798139 40.91966291 50.4375 45.8125 C55.26001065 49.92927738 58.49078116 54.14533178 59.3359375 60.54296875 C59.60228507 78.57469942 45.94377937 94.79201087 33.953125 107.171875 C33.44185059 107.70603027 32.93057617 108.24018555 32.40380859 108.79052734 C31.40521466 109.82548017 30.39290813 110.84742196 29.36572266 111.85400391 C27.79503128 113.41207933 27.79503128 113.41207933 26 116 C26.06873912 119.95562413 27.92351826 123.43703037 29.4375 127.0625 C34.41770293 139.95921048 34.24238371 152.37264897 34 166 C34.53625 165.5153125 35.0725 165.030625 35.625 164.53125 C40.81178071 160.09518755 46.11952386 156.62747588 52.1875 153.5625 C52.85201172 153.22089844 53.51652344 152.87929687 54.20117188 152.52734375 C58.96421436 150.20021674 64.0002773 148.10819055 69.3125 149.6875 C71.47719891 151.37115471 72.21270916 152.35183989 73 155 C73 158.5 73 158.5 72 162 C69.2637983 164.44039611 66.58560438 165.72110065 63.28515625 167.29296875 C56.09926576 170.74256612 49.87194172 174.55676199 44 180 C44 180.33 44 180.66 44 181 C45.26972656 181.21914062 46.53945313 181.43828125 47.84765625 181.6640625 C70.35594377 185.73391582 91.61815984 193.57220008 105.17578125 213.04296875 C111.25510095 222.89745486 114.27445295 233.20116533 113.82421875 244.75952148 C113.53922902 252.64267494 114.67062083 258.06768796 118.39453125 265.23046875 C122.88763628 274.78777791 123.52803628 285.29610843 123.4375 295.6875 C123.43065186 296.90848389 123.42380371 298.12946777 123.41674805 299.38745117 C123.21424116 310.87725194 121.57861419 321.45936503 117.41015625 332.1796875 C114.4426283 338.61023807 114.4426283 338.61023807 114.9140625 345.23828125 C116.42716012 347.02810363 116.42716012 347.02810363 118.21875 348.3125 C122.42583307 352.29815765 123.18950773 357.12892804 123.41992188 362.68481445 C123.4530756 364.91078267 123.46835513 367.13706619 123.46875 369.36328125 C123.47636353 370.55044235 123.48397705 371.73760345 123.49182129 372.96073914 C123.50260041 375.4662364 123.50548433 377.97177852 123.50097656 380.47729492 C123.50000581 384.28967136 123.54162524 388.10002391 123.5859375 391.91210938 C123.59114625 394.3541625 123.59383267 396.79622257 123.59375 399.23828125 C123.61014526 400.36776688 123.62654053 401.4972525 123.64343262 402.66096497 C123.5656984 411.66446354 120.9319223 417.60211655 116 425 C116.598125 425.680625 117.19625 426.36125 117.8125 427.0625 C123.22796955 434.33470196 123.46718032 440.51363712 123.46875 449.36328125 C123.47636353 450.55044235 123.48397705 451.73760345 123.49182129 452.96073914 C123.50260041 455.4662364 123.50548433 457.97177852 123.50097656 460.47729492 C123.50000581 464.28967136 123.54162524 468.10002391 123.5859375 471.91210938 C123.59114625 474.3541625 123.59383267 476.79622257 123.59375 479.23828125 C123.61014526 480.36776688 123.62654053 481.4972525 123.64343262 482.66096497 C123.57092277 491.0593557 121.83189404 497.86471732 116.01013184 504.14741516 C109.65906738 510.17826349 103.48973449 512.45932631 94.79519939 512.38311005 C93.99320607 512.38806956 93.19121275 512.39302908 92.36491659 512.39813888 C89.67863735 512.41108806 86.99285573 512.40271249 84.30656433 512.39440918 C82.36074051 512.3992984 80.4149196 512.40548835 78.46910363 512.41286707 C73.12263879 512.42928575 67.77632122 512.4269447 62.42983997 512.4214921 C56.6635099 512.41882428 50.8972193 512.43334906 45.13090515 512.44558716 C33.83404154 512.46665398 22.53722923 512.47118128 11.2403483 512.46939927 C2.05867162 512.46809225 -7.12298904 512.47189273 -16.3046627 512.47932434 C-18.94826545 512.48142351 -21.5918682 512.48352111 -24.23547095 512.48561716 C-25.55122187 512.48666069 -26.86697278 512.48770422 -28.22259494 512.48877937 C-46.04182081 512.50255003 -63.86104116 512.50990488 -81.6802721 512.50545502 C-82.37706785 512.50528306 -83.07386359 512.50511111 -83.79177436 512.50493394 C-87.32337022 512.50404506 -90.85496607 512.50310025 -94.38656191 512.50213593 C-95.08794108 512.5019449 -95.78932025 512.50175387 -96.51195333 512.50155704 C-97.93031257 512.50116995 -99.3486718 512.50077962 -100.76703104 512.50038607 C-122.83472044 512.49441658 -144.90230495 512.50985217 -166.9699707 512.54199219 C-191.76674438 512.57807639 -216.56345098 512.59735706 -241.36025256 512.59245348 C-254.48827018 512.59020785 -267.61618383 512.59546565 -280.74418068 512.62034607 C-291.92074527 512.64134756 -303.09714889 512.64496253 -314.27372006 512.62604648 C-319.97624073 512.61688159 -325.67846118 512.61576905 -331.38095856 512.63640213 C-336.60266838 512.65508665 -341.82383154 512.65063651 -347.04552039 512.62785631 C-348.93309514 512.62366423 -350.82071159 512.62789095 -352.70824227 512.64145225 C-372.83770527 512.77621042 -372.83770527 512.77621042 -381.1227563 505.01024008 C-388.59022471 497.25268691 -389.46690415 490.04336924 -389.46875 479.63671875 C-389.47636353 478.44955765 -389.48397705 477.26239655 -389.49182129 476.03926086 C-389.50260041 473.5337636 -389.50548433 471.02822148 -389.50097656 468.52270508 C-389.50000581 464.71032864 -389.54162524 460.89997609 -389.5859375 457.08789062 C-389.59114625 454.6458375 -389.59383267 452.20377743 -389.59375 449.76171875 C-389.61014526 448.63223312 -389.62654053 447.5027475 -389.64343262 446.33903503 C-389.5656984 437.33553646 -386.9319223 431.39788345 -382 424 C-382.598125 423.319375 -383.19625 422.63875 -383.8125 421.9375 C-389.22796955 414.66529804 -389.46718032 408.48636288 -389.46875 399.63671875 C-389.47636353 398.44955765 -389.48397705 397.26239655 -389.49182129 396.03926086 C-389.50260041 393.5337636 -389.50548433 391.02822148 -389.50097656 388.52270508 C-389.50000581 384.71032864 -389.54162524 380.89997609 -389.5859375 377.08789062 C-389.59114625 374.6458375 -389.59383267 372.20377743 -389.59375 369.76171875 C-389.61014526 368.63223312 -389.62654053 367.5027475 -389.64343262 366.33903503 C-389.57092277 357.9406443 -387.83189404 351.13528268 -382.01013184 344.85258484 C-375.0646622 338.2573008 -368.6722443 336.5392826 -359.34765625 336.70703125 C-358.44752304 336.71127609 -357.54738983 336.71552094 -356.61997986 336.71989441 C-353.76717214 336.73658184 -350.91509137 336.77421503 -348.0625 336.8125 C-346.11915088 336.8275597 -344.17579061 336.84124585 -342.23242188 336.85351562 C-337.48800451 336.88645274 -332.74412517 336.9381656 -328 337 C-328.59522494 334.45594213 -329.20082769 331.9151083 -329.8125 329.375 C-329.97814453 328.66214844 -330.14378906 327.94929688 -330.31445312 327.21484375 C-332.09274003 319.90038065 -334.46309813 314.2249029 -341 310 C-342.57402564 309.23065759 -344.1583212 308.48212228 -345.75 307.75 C-359.46635252 301.17027601 -369.81339566 287.78650608 -375.2265625 273.83984375 C-380.52988881 258.44493608 -380.15818413 243.47455238 -375 228 C-374.31802178 222.31684816 -375.6790229 219.23204691 -378.5 214.51171875 C-380.14273975 211.76098525 -381.65251723 208.97057296 -383.125 206.125 C-383.60195313 205.22007812 -384.07890625 204.31515625 -384.5703125 203.3828125 C-388.12293605 194.97687809 -389.56147686 186.91107455 -389.5 177.8125 C-389.49427979 176.81508789 -389.48855957 175.81767578 -389.48266602 174.79003906 C-389.06870654 157.45670549 -382.20356334 144.02949543 -370.4765625 131.35546875 C-367.04459169 128.09130724 -363.31317089 125.42049903 -359.3828125 122.7890625 C-354.2148979 118.90889055 -353.00291209 114.39979251 -351.1875 108.4375 C-344.75012052 88.40543095 -332.44330507 72.83085961 -313.76953125 62.828125 C-296.24564685 53.9811154 -276.82077041 52.76652749 -257.9375 57.3125 C-250.41621807 59.07280003 -245.69564221 57.60443758 -238.8125 54.3125 C-224.74981019 47.74991142 -206.65102332 47.74638714 -192.03515625 52.74609375 C-182.52344589 56.67564205 -175.28480616 61.72771069 -168 69 C-167.37351563 69.61488281 -166.74703125 70.22976562 -166.1015625 70.86328125 C-161.78079849 75.42843236 -158.80558239 80.52858114 -155.92724609 86.0769043 C-153.02813945 91.50648444 -150.24805816 94.23028443 -144.40625 96.23046875 C-143.10739967 96.56239717 -141.80514208 96.88124389 -140.5 97.1875 C-139.52353516 97.4340332 -139.52353516 97.4340332 -138.52734375 97.68554688 C-135.03688934 98.55639762 -131.53369435 99.32723896 -128 100 C-127.57589844 99.50371094 -127.15179688 99.00742188 -126.71484375 98.49609375 C-124.82960582 96.31253245 -122.92101644 94.15214465 -121 92 C-120.45988281 91.3915625 -119.91976563 90.783125 -119.36328125 90.15625 C-112.61096088 82.96249464 -103.92204027 78.05547285 -95 74 C-94.34 74 -93.68 74 -93 74 C-93.16081055 73.4846167 -93.32162109 72.9692334 -93.48730469 72.43823242 C-94.72081313 66.5720187 -94.24521311 60.29829732 -94.25 54.3125 C-94.25067474 53.56523651 -94.25134949 52.81797302 -94.25204468 52.04806519 C-94.20428222 18.8879724 -94.20428222 18.8879724 -83.75 7.5625 C-77.83777186 4.20327946 -72.15295189 2.18039422 -65.3125 3.30859375 C-57.30698328 5.70213507 -51.1859974 11.32949105 -45.2265625 16.94921875 C-43.23121856 18.78703554 -41.20020412 20.41766142 -39 22 C-38.24976563 21.14277344 -37.49953125 20.28554688 -36.7265625 19.40234375 C-30.71310754 12.64313345 -24.87511582 6.6366171 -17 2 C-16.37867188 1.61972656 -15.75734375 1.23945312 -15.1171875 0.84765625 C-10.38601832 -1.04655724 -4.98601538 -0.49735814 0 0 Z " fill="#FED89F" transform="translate(389,0)"/>
<path d="M0 0 C5.40564524 2.50976386 9.56503949 6.68351451 11.94140625 12.17578125 C14.4851665 19.48755587 15.18871651 26.69099188 15.5625 34.375 C15.60568359 35.20644531 15.64886719 36.03789063 15.69335938 36.89453125 C15.79861805 38.92953228 15.89973072 40.96474703 16 43 C17.20011719 42.83886719 18.40023438 42.67773438 19.63671875 42.51171875 C29.82572899 41.24565524 41.15798139 40.91966291 50.4375 45.8125 C55.26001065 49.92927738 58.49078116 54.14533178 59.3359375 60.54296875 C59.60228507 78.57469942 45.94377937 94.79201087 33.953125 107.171875 C33.44185059 107.70603027 32.93057617 108.24018555 32.40380859 108.79052734 C31.40521466 109.82548017 30.39290813 110.84742196 29.36572266 111.85400391 C27.79503128 113.41207933 27.79503128 113.41207933 26 116 C26.06873912 119.95562413 27.92351826 123.43703037 29.4375 127.0625 C34.41770293 139.95921048 34.24238371 152.37264897 34 166 C34.53625 165.5153125 35.0725 165.030625 35.625 164.53125 C40.81178071 160.09518755 46.11952386 156.62747588 52.1875 153.5625 C52.85201172 153.22089844 53.51652344 152.87929687 54.20117188 152.52734375 C58.96421436 150.20021674 64.0002773 148.10819055 69.3125 149.6875 C71.47719891 151.37115471 72.21270916 152.35183989 73 155 C73 158.5 73 158.5 72 162 C69.2637983 164.44039611 66.58560438 165.72110065 63.28515625 167.29296875 C56.09926576 170.74256612 49.87194172 174.55676199 44 180 C44 180.33 44 180.66 44 181 C45.26972656 181.21914062 46.53945313 181.43828125 47.84765625 181.6640625 C70.35594377 185.73391582 91.61815984 193.57220008 105.17578125 213.04296875 C111.25510095 222.89745486 114.27445295 233.20116533 113.82421875 244.75952148 C113.53922902 252.64267494 114.67062083 258.06768796 118.39453125 265.23046875 C122.88763628 274.78777791 123.52803628 285.29610843 123.4375 295.6875 C123.43065186 296.90848389 123.42380371 298.12946777 123.41674805 299.38745117 C123.21424116 310.87725194 121.57861419 321.45936503 117.41015625 332.1796875 C114.4426283 338.61023807 114.4426283 338.61023807 114.9140625 345.23828125 C116.42716012 347.02810363 116.42716012 347.02810363 118.21875 348.3125 C122.42583307 352.29815765 123.18950773 357.12892804 123.41992188 362.68481445 C123.4530756 364.91078267 123.46835513 367.13706619 123.46875 369.36328125 C123.47636353 370.55044235 123.48397705 371.73760345 123.49182129 372.96073914 C123.50260041 375.4662364 123.50548433 377.97177852 123.50097656 380.47729492 C123.50000581 384.28967136 123.54162524 388.10002391 123.5859375 391.91210938 C123.59114625 394.3541625 123.59383267 396.79622257 123.59375 399.23828125 C123.61014526 400.36776688 123.62654053 401.4972525 123.64343262 402.66096497 C123.5656984 411.66446354 120.9319223 417.60211655 116 425 C116.598125 425.680625 117.19625 426.36125 117.8125 427.0625 C123.22796955 434.33470196 123.46718032 440.51363712 123.46875 449.36328125 C123.47636353 450.55044235 123.48397705 451.73760345 123.49182129 452.96073914 C123.50260041 455.4662364 123.50548433 457.97177852 123.50097656 460.47729492 C123.50000581 464.28967136 123.54162524 468.10002391 123.5859375 471.91210938 C123.59114625 474.3541625 123.59383267 476.79622257 123.59375 479.23828125 C123.61014526 480.36776688 123.62654053 481.4972525 123.64343262 482.66096497 C123.57092277 491.0593557 121.83189404 497.86471732 116.01013184 504.14741516 C109.65906738 510.17826349 103.48973449 512.45932631 94.79519939 512.38311005 C93.99320607 512.38806956 93.19121275 512.39302908 92.36491659 512.39813888 C89.67863735 512.41108806 86.99285573 512.40271249 84.30656433 512.39440918 C82.36074051 512.3992984 80.4149196 512.40548835 78.46910363 512.41286707 C73.12263879 512.42928575 67.77632122 512.4269447 62.42983997 512.4214921 C56.6635099 512.41882428 50.8972193 512.43334906 45.13090515 512.44558716 C33.83404154 512.46665398 22.53722923 512.47118128 11.2403483 512.46939927 C2.05867162 512.46809225 -7.12298904 512.47189273 -16.3046627 512.47932434 C-18.94826545 512.48142351 -21.5918682 512.48352111 -24.23547095 512.48561716 C-25.55122187 512.48666069 -26.86697278 512.48770422 -28.22259494 512.48877937 C-46.04182081 512.50255003 -63.86104116 512.50990488 -81.6802721 512.50545502 C-82.37706785 512.50528306 -83.07386359 512.50511111 -83.79177436 512.50493394 C-87.32337022 512.50404506 -90.85496607 512.50310025 -94.38656191 512.50213593 C-95.08794108 512.5019449 -95.78932025 512.50175387 -96.51195333 512.50155704 C-97.93031257 512.50116995 -99.3486718 512.50077962 -100.76703104 512.50038607 C-122.83472044 512.49441658 -144.90230495 512.50985217 -166.9699707 512.54199219 C-191.76674438 512.57807639 -216.56345098 512.59735706 -241.36025256 512.59245348 C-254.48827018 512.59020785 -267.61618383 512.59546565 -280.74418068 512.62034607 C-291.92074527 512.64134756 -303.09714889 512.64496253 -314.27372006 512.62604648 C-319.97624073 512.61688159 -325.67846118 512.61576905 -331.38095856 512.63640213 C-336.60266838 512.65508665 -341.82383154 512.65063651 -347.04552039 512.62785631 C-348.93309514 512.62366423 -350.82071159 512.62789095 -352.70824227 512.64145225 C-372.83770527 512.77621042 -372.83770527 512.77621042 -381.1227563 505.01024008 C-388.59022471 497.25268691 -389.46690415 490.04336924 -389.46875 479.63671875 C-389.47636353 478.44955765 -389.48397705 477.26239655 -389.49182129 476.03926086 C-389.50260041 473.5337636 -389.50548433 471.02822148 -389.50097656 468.52270508 C-389.50000581 464.71032864 -389.54162524 460.89997609 -389.5859375 457.08789062 C-389.59114625 454.6458375 -389.59383267 452.20377743 -389.59375 449.76171875 C-389.61014526 448.63223312 -389.62654053 447.5027475 -389.64343262 446.33903503 C-389.5656984 437.33553646 -386.9319223 431.39788345 -382 424 C-382.598125 423.319375 -383.19625 422.63875 -383.8125 421.9375 C-389.22796955 414.66529804 -389.46718032 408.48636288 -389.46875 399.63671875 C-389.47636353 398.44955765 -389.48397705 397.26239655 -389.49182129 396.03926086 C-389.50260041 393.5337636 -389.50548433 391.02822148 -389.50097656 388.52270508 C-389.50000581 384.71032864 -389.54162524 380.89997609 -389.5859375 377.08789062 C-389.59114625 374.6458375 -389.59383267 372.20377743 -389.59375 369.76171875 C-389.61014526 368.63223312 -389.62654053 367.5027475 -389.64343262 366.33903503 C-389.57092277 357.9406443 -387.83189404 351.13528268 -382.01013184 344.85258484 C-375.0646622 338.2573008 -368.6722443 336.5392826 -359.34765625 336.70703125 C-358.44752304 336.71127609 -357.54738983 336.71552094 -356.61997986 336.71989441 C-353.76717214 336.73658184 -350.91509137 336.77421503 -348.0625 336.8125 C-346.11915088 336.8275597 -344.17579061 336.84124585 -342.23242188 336.85351562 C-337.48800451 336.88645274 -332.74412517 336.9381656 -328 337 C-328.59522494 334.45594213 -329.20082769 331.9151083 -329.8125 329.375 C-329.97814453 328.66214844 -330.14378906 327.94929688 -330.31445312 327.21484375 C-332.09274003 319.90038065 -334.46309813 314.2249029 -341 310 C-342.57402564 309.23065759 -344.1583212 308.48212228 -345.75 307.75 C-359.46635252 301.17027601 -369.81339566 287.78650608 -375.2265625 273.83984375 C-380.52988881 258.44493608 -380.15818413 243.47455238 -375 228 C-374.31802178 222.31684816 -375.6790229 219.23204691 -378.5 214.51171875 C-380.14273975 211.76098525 -381.65251723 208.97057296 -383.125 206.125 C-383.60195313 205.22007812 -384.07890625 204.31515625 -384.5703125 203.3828125 C-388.12293605 194.97687809 -389.56147686 186.91107455 -389.5 177.8125 C-389.49427979 176.81508789 -389.48855957 175.81767578 -389.48266602 174.79003906 C-389.06870654 157.45670549 -382.20356334 144.02949543 -370.4765625 131.35546875 C-367.04459169 128.09130724 -363.31317089 125.42049903 -359.3828125 122.7890625 C-354.2148979 118.90889055 -353.00291209 114.39979251 -351.1875 108.4375 C-344.75012052 88.40543095 -332.44330507 72.83085961 -313.76953125 62.828125 C-296.24564685 53.9811154 -276.82077041 52.76652749 -257.9375 57.3125 C-250.41621807 59.07280003 -245.69564221 57.60443758 -238.8125 54.3125 C-224.74981019 47.74991142 -206.65102332 47.74638714 -192.03515625 52.74609375 C-182.52344589 56.67564205 -175.28480616 61.72771069 -168 69 C-167.37351563 69.61488281 -166.74703125 70.22976562 -166.1015625 70.86328125 C-161.78079849 75.42843236 -158.80558239 80.52858114 -155.92724609 86.0769043 C-153.02813945 91.50648444 -150.24805816 94.23028443 -144.40625 96.23046875 C-143.10739967 96.56239717 -141.80514208 96.88124389 -140.5 97.1875 C-139.52353516 97.4340332 -139.52353516 97.4340332 -138.52734375 97.68554688 C-135.03688934 98.55639762 -131.53369435 99.32723896 -128 100 C-127.57589844 99.50371094 -127.15179688 99.00742188 -126.71484375 98.49609375 C-124.82960582 96.31253245 -122.92101644 94.15214465 -121 92 C-120.45988281 91.3915625 -119.91976563 90.783125 -119.36328125 90.15625 C-112.61096088 82.96249464 -103.92204027 78.05547285 -95 74 C-94.34 74 -93.68 74 -93 74 C-93.16081055 73.4846167 -93.32162109 72.9692334 -93.48730469 72.43823242 C-94.72081313 66.5720187 -94.24521311 60.29829732 -94.25 54.3125 C-94.25067474 53.56523651 -94.25134949 52.81797302 -94.25204468 52.04806519 C-94.20428222 18.8879724 -94.20428222 18.8879724 -83.75 7.5625 C-77.83777186 4.20327946 -72.15295189 2.18039422 -65.3125 3.30859375 C-57.30698328 5.70213507 -51.1859974 11.32949105 -45.2265625 16.94921875 C-43.23121856 18.78703554 -41.20020412 20.41766142 -39 22 C-38.24976563 21.14277344 -37.49953125 20.28554688 -36.7265625 19.40234375 C-30.71310754 12.64313345 -24.87511582 6.6366171 -17 2 C-16.37867188 1.61972656 -15.75734375 1.23945312 -15.1171875 0.84765625 C-10.38601832 -1.04655724 -4.98601538 -0.49735814 0 0 Z M-237.8125 70.6875 C-246.21400407 74.38683601 -255.49715137 74.15560914 -264.34765625 71.99609375 C-279.65564197 68.37891341 -296.34481329 70.38632669 -309.82421875 78.54296875 C-324.14023854 88.12981862 -332.7595125 100.28549157 -337.76269531 116.70703125 C-341.2807199 128.08590502 -346.90241944 133.28844163 -356.29296875 140.2902832 C-365.71014662 147.42297418 -371.2348219 157.58602694 -374 169 C-375.59396333 184.70473345 -371.31291225 197.33161382 -362.671875 210.390625 C-358.67665827 216.62615018 -359.42069361 224.8087337 -360 232 C-360.671875 234.8671875 -360.671875 234.8671875 -361.5 237.375 C-364.96833991 248.44700816 -364.20174834 260.63338504 -359.484375 271.16796875 C-357.27592676 275.38145551 -354.95818415 279.26915581 -352 283 C-351.28457031 283.90298828 -351.28457031 283.90298828 -350.5546875 284.82421875 C-346.02950421 289.88378299 -340.29857398 292.91771635 -334.40234375 296.10546875 C-326.43810281 300.54020681 -321.89519008 304.68297424 -318 313 C-317.0315629 316.73707381 -316.34366945 320.40562417 -315.80078125 324.2265625 C-314.82292199 328.83442614 -313.04669091 332.77881303 -311 337 C-310.08186523 337.01458252 -309.16373047 337.02916504 -308.21777344 337.04418945 C-304.80312091 337.10533515 -301.38926328 337.17950217 -297.97509766 337.26245117 C-296.49896862 337.29565355 -295.02271406 337.32370017 -293.54638672 337.34643555 C-291.42100668 337.38006951 -289.29677196 337.43238519 -287.171875 337.48828125 C-285.8940918 337.51446533 -284.61630859 337.54064941 -283.29980469 337.56762695 C-279.84527107 338.02027411 -278.36795724 338.47683273 -276 341 C-275.5 344.5 -275.5 344.5 -276 348 C-278.45133536 350.73261558 -279.98417539 350.99839573 -283.66757202 351.37181091 C-285.16552124 351.38602716 -286.6636795 351.3838938 -288.16162109 351.36889648 C-289.39162086 351.3745462 -289.39162086 351.3745462 -290.64646912 351.38031006 C-292.42469516 351.38673925 -294.20295556 351.38641556 -295.9811821 351.38012505 C-298.79779765 351.37101496 -301.61374746 351.38123801 -304.43032837 351.39674377 C-312.43726563 351.43684396 -320.44415092 351.43804701 -328.45117188 351.43579102 C-333.35127359 351.43573987 -338.25101665 351.45492862 -343.15102005 351.48512459 C-345.92199182 351.49594172 -348.69227667 351.4838235 -351.46322632 351.47129822 C-353.1686877 351.48020467 -354.87414351 351.49027976 -356.57958984 351.50170898 C-357.73002525 351.48709373 -357.73002525 351.48709373 -358.90370178 351.47218323 C-364.08366011 351.54130991 -366.99697728 352.7529696 -371 356 C-374.97423265 360.51912942 -374.43450096 365.62946706 -374.3984375 371.33984375 C-374.40130768 372.33955704 -374.40417786 373.33927032 -374.40713501 374.36927795 C-374.40917303 376.47983365 -374.40366153 378.59040835 -374.39111328 380.70092773 C-374.37507321 383.92279557 -374.39096259 387.14340574 -374.41015625 390.36523438 C-374.40817344 392.41927359 -374.40432899 394.47331203 -374.3984375 396.52734375 C-374.40451019 397.48688461 -374.41058289 398.44642548 -374.4168396 399.43504333 C-374.3622066 404.65982552 -374.13358918 408.60396061 -371 413 C-365.44644647 418.04534814 -359.9254139 417.55692036 -352.68844604 417.49206543 C-350.81063908 417.49908391 -350.81063908 417.49908391 -348.89489663 417.50624418 C-345.42712833 417.51873864 -341.95982375 417.50646401 -338.4920876 417.49016929 C-334.74973407 417.47698804 -331.00743522 417.4869638 -327.26507568 417.49427795 C-320.7826454 417.50395543 -314.30034957 417.49949663 -307.81792831 417.4858551 C-298.44110754 417.46649265 -289.06443796 417.47293053 -279.68761326 417.48642892 C-264.46832979 417.50800866 -249.24908198 417.51472388 -234.02978516 417.50927734 C-233.11909929 417.50895671 -232.20841342 417.50863608 -231.27013101 417.50830573 C-224.80508715 417.50593227 -218.34004358 417.50302752 -211.875 417.5 C-204.486491 417.49654052 -197.09798201 417.49332226 -189.70947266 417.49072266 C-188.34419862 417.49023439 -188.34419862 417.49023439 -186.95134328 417.48973626 C-171.78634591 417.48479772 -156.62139812 417.49545535 -141.45641625 417.51729441 C-132.10031921 417.5300072 -122.74442609 417.52851715 -113.38834001 417.50884354 C-106.98184881 417.49625821 -100.57546122 417.49767765 -94.16897021 417.51021707 C-90.47018624 417.5169448 -86.77170439 417.51698496 -83.07294846 417.4996357 C-79.06760553 417.48096807 -75.06294458 417.49292676 -71.05758667 417.50793457 C-69.88270058 417.49744567 -68.70781448 417.48695678 -67.49732578 417.47615004 C-66.42714273 417.48513083 -65.35695968 417.49411162 -64.25434685 417.50336456 C-63.3295628 417.50271515 -62.40477875 417.50206574 -61.45197093 417.50139666 C-58.20149903 418.16237356 -56.98874299 419.38793858 -55 422 C-55 425.625 -55 425.625 -56 429 C-59.03380727 431.08995934 -61.61695032 431.25010744 -65.23872948 431.25053978 C-66.83877895 431.25803783 -66.83877895 431.25803783 -68.47115266 431.26568735 C-69.64214781 431.26102413 -70.81314296 431.25636092 -72.0196228 431.2515564 C-73.88662446 431.2560116 -73.88662446 431.2560116 -75.79134333 431.26055682 C-79.24827708 431.26688272 -82.70499971 431.26428585 -86.16192007 431.25803804 C-89.8893424 431.25350921 -93.61674396 431.26054186 -97.34416199 431.26634216 C-103.80421055 431.27498023 -110.26423172 431.27678208 -116.72428513 431.27439499 C-126.07100811 431.27129985 -135.41767042 431.28292738 -144.76437815 431.29894479 C-159.93698886 431.32491599 -175.10959962 431.34493007 -190.28222656 431.35839844 C-191.1905282 431.35920881 -192.09882984 431.36001918 -193.03465576 431.3608541 C-205.9252504 431.37207609 -218.81584071 431.37735676 -231.70643957 431.38024123 C-232.61413482 431.38044522 -233.52183008 431.38064921 -234.45703125 431.38085938 C-235.36362159 431.38105931 -236.27021193 431.38125925 -237.2042747 431.38146524 C-252.31724903 431.385197 -267.43015763 431.40427426 -282.54309905 431.43595374 C-291.86679242 431.45487992 -301.19031732 431.46082273 -310.51402463 431.45013656 C-316.90234251 431.44382196 -323.29053949 431.45184519 -329.67883085 431.47119068 C-333.36568552 431.48188333 -337.05224671 431.48600642 -340.7390995 431.47271919 C-344.73511625 431.45846221 -348.73041562 431.47497293 -352.72640991 431.49447632 C-354.47621047 431.48078933 -354.47621047 431.48078933 -356.26136053 431.46682584 C-362.48154142 431.52609744 -366.28911852 431.78786539 -371 436 C-374.97423265 440.51912942 -374.43450096 445.62946706 -374.3984375 451.33984375 C-374.40130768 452.33955704 -374.40417786 453.33927032 -374.40713501 454.36927795 C-374.40917303 456.47983365 -374.40366153 458.59040835 -374.39111328 460.70092773 C-374.37507321 463.92279557 -374.39096259 467.14340574 -374.41015625 470.36523438 C-374.40817344 472.41927359 -374.40432899 474.47331203 -374.3984375 476.52734375 C-374.40451019 477.48688461 -374.41058289 478.44642548 -374.4168396 479.43504333 C-374.3622066 484.65982552 -374.13358918 488.60396061 -371 493 C-366.40631147 496.73926865 -362.80351739 497.57771495 -357.03201294 497.50336456 C-355.84921662 497.51208521 -355.84921662 497.51208521 -354.64252543 497.52098203 C-351.9959109 497.53559908 -349.3502213 497.5216891 -346.70361328 497.50793457 C-344.78879891 497.51254281 -342.87398807 497.51889521 -340.95918465 497.52684355 C-335.69389816 497.54357049 -330.42890097 497.53527515 -325.16361332 497.52289867 C-319.48663924 497.5138643 -313.80971559 497.5278099 -308.13275146 497.53881836 C-297.01019316 497.55662539 -285.88774268 497.55275385 -274.76518011 497.5411678 C-265.72741656 497.53214235 -256.68968327 497.53090563 -247.6519165 497.53526306 C-245.724083 497.53618246 -245.724083 497.53618246 -243.75730336 497.53712043 C-241.14657894 497.5383993 -238.53585453 497.53969616 -235.92513013 497.5410108 C-212.1302105 497.55209753 -188.33535626 497.54059091 -164.54044703 497.51964041 C-142.81534461 497.50065776 -121.09033597 497.50235626 -99.36523438 497.52148438 C-74.96073841 497.54289973 -50.55630628 497.5513243 -26.15180016 497.53903532 C-23.55056128 497.53776109 -20.94932239 497.53650361 -18.3480835 497.53526306 C-17.06815053 497.53464596 -15.78821757 497.53402886 -14.46949875 497.53339306 C-5.44028537 497.52993616 3.58889479 497.53577581 12.61810303 497.54518127 C23.61839581 497.55638784 34.61857439 497.55338944 45.61885405 497.5320583 C51.23374182 497.52152986 56.84843904 497.51745667 62.4633255 497.53065491 C67.60030778 497.54254737 72.73692231 497.53606815 77.87387109 497.5147447 C79.73515529 497.51026529 81.59647037 497.51257478 83.45773482 497.52224785 C85.98293929 497.53436782 88.50687526 497.52198216 91.03201294 497.50336456 C91.75895206 497.51272923 92.48589118 497.52209389 93.23485875 497.53174233 C98.26874287 497.45728766 101.12097295 496.15790242 105 493 C108.67591764 487.8326379 108.45233139 482.6670504 108.43359375 476.5625 C108.4388356 475.56420166 108.44407745 474.56590332 108.44947815 473.53735352 C108.45588372 471.43278938 108.45458039 469.32818938 108.44604492 467.22363281 C108.43752761 464.0104179 108.46632954 460.79897736 108.49804688 457.5859375 C108.49965892 455.53645886 108.4990813 453.48697709 108.49609375 451.4375 C108.51294472 450.00289429 108.51294472 450.00289429 108.53013611 448.53930664 C108.47144975 442.90188771 107.99402541 439.31975418 104 435 C98.25897955 431.04509614 92.31666265 431.58004385 85.61645508 431.61523438 C84.37194077 431.6098616 83.12742645 431.60448883 81.84519958 431.59895325 C79.14732583 431.58918007 76.45006464 431.58473128 73.75223732 431.58930969 C69.4872002 431.59613402 65.22243104 431.58022832 60.95744324 431.56091309 C51.13896511 431.51989525 41.32049483 431.50850339 31.5019455 431.49738312 C22.49271457 431.4868783 13.48361281 431.47014196 4.47446173 431.42928743 C0.23354251 431.4109143 -4.00706906 431.40704422 -8.24801862 431.41422272 C-11.50026682 431.41609846 -14.75242641 431.39886552 -18.00463867 431.38476562 C-19.18132111 431.39091385 -20.35800354 431.39706207 -21.57034302 431.40339661 C-23.17904015 431.39109261 -23.17904015 431.39109261 -24.82023621 431.37854004 C-25.75359393 431.37782753 -26.68695166 431.37711502 -27.64859295 431.37638092 C-30 431 -30 431 -31.80029774 429.69509125 C-33.80657348 426.86037087 -33.35826904 424.3438444 -33 421 C-31.80267048 419.30448818 -31.80267048 419.30448818 -30 418 C-27.63297558 417.62641239 -27.63297558 417.62641239 -24.78227234 417.62818909 C-23.16095398 417.61805283 -23.16095398 417.61805283 -21.50688171 417.60771179 C-20.32084854 417.61543106 -19.13481537 417.62315033 -17.9128418 417.63110352 C-16.66383087 417.62733704 -15.41481995 417.62357056 -14.12796021 417.61968994 C-11.41039621 417.61324402 -8.69343033 417.61216217 -5.97592735 417.61987495 C-1.67670873 417.631454 2.62224018 417.61929807 6.9214325 417.60325623 C17.6020647 417.56705194 28.28269093 417.56082995 38.96337891 417.56335449 C47.25975609 417.56506645 55.55591316 417.55791677 63.85222882 417.52337593 C68.12334201 417.50659715 72.39391825 417.50836351 76.66502917 417.52419865 C79.95162495 417.531369 83.23809722 417.51275194 86.5246582 417.49829102 C88.29459892 417.51290627 88.29459892 417.51290627 90.10029602 417.52781677 C96.35277251 417.47284575 100.29480339 417.29310231 105 413 C108.67591764 407.8326379 108.45233139 402.6670504 108.43359375 396.5625 C108.4388356 395.56420166 108.44407745 394.56590332 108.44947815 393.53735352 C108.45588372 391.43278938 108.45458039 389.32818938 108.44604492 387.22363281 C108.43752761 384.0104179 108.46632954 380.79897736 108.49804688 377.5859375 C108.49965892 375.53645886 108.4990813 373.48697709 108.49609375 371.4375 C108.51294472 370.00289429 108.51294472 370.00289429 108.53013611 368.53930664 C108.47144975 362.90188771 107.99402541 359.31975418 104 355 C99.7914691 352.50799688 96.70864341 351.6251646 91.83804131 351.62641239 C90.00548957 351.61592777 90.00548957 351.61592777 88.13591659 351.60523134 C86.78859748 351.61262401 85.44127983 351.62028624 84.09396362 351.62818909 C82.65620265 351.62561357 81.21844355 351.62171174 79.78068936 351.6165995 C75.83414209 351.60632865 71.88781851 351.61462676 67.94128203 351.62589633 C63.68359166 351.63474944 59.42593295 351.62624685 55.16824341 351.61968994 C47.79204151 351.61053344 40.41590183 351.61186204 33.03969955 351.61987495 C22.37059394 351.63110079 11.70157707 351.622071 1.03247918 351.60731315 C-16.28319595 351.58354089 -33.59886013 351.57017542 -50.91455078 351.56616211 C-51.95084247 351.56591724 -52.98713416 351.56567237 -54.05482863 351.56542008 C-65.62171702 351.56287308 -77.18860457 351.56230797 -88.75549316 351.56335449 C-92.95239258 351.56368753 -97.14929199 351.56397292 -101.34619141 351.56420898 C-102.38182791 351.56427177 -103.41746442 351.56433456 -104.48448385 351.56439925 C-121.73774634 351.56500353 -138.99095823 351.55014625 -156.24419963 351.52337593 C-166.89007634 351.50754773 -177.53579 351.50533689 -188.18166851 351.52050995 C-195.47120273 351.52995409 -202.76063841 351.52525217 -210.05016102 351.50929613 C-214.2592936 351.50057571 -218.46816469 351.49852373 -222.67728424 351.51382256 C-226.5275343 351.52770585 -230.37730978 351.52336351 -234.22753368 351.50430154 C-235.62310881 351.50067703 -237.01872111 351.50387716 -238.41426088 351.51445121 C-240.30604115 351.52782383 -242.19795493 351.5143539 -244.08972359 351.49942875 C-245.66827871 351.49958975 -245.66827871 351.49958975 -247.27872384 351.49975401 C-250.72188235 350.86742852 -251.93374029 349.788563 -254 347 C-253.9375 343.375 -253.9375 343.375 -253 340 C-249.94271783 337.96181189 -249.25909599 337.74340713 -245.80395508 337.68115234 C-244.54298759 337.65134781 -244.54298759 337.65134781 -243.25654602 337.62094116 C-242.35333115 337.60938995 -241.45011627 337.59783875 -240.51953125 337.5859375 C-239.59154221 337.56657135 -238.66355316 337.5472052 -237.70744324 337.5272522 C-234.74255575 337.46745756 -231.77762943 337.42107145 -228.8125 337.375 C-226.80271741 337.33682012 -224.79295119 337.29776838 -222.78320312 337.2578125 C-217.85560158 337.16175607 -212.92792342 337.07772451 -208 337 C-209.99625936 330.52712039 -212.4903999 324.44984547 -215.37890625 318.328125 C-215.79164291 317.44268005 -216.20437958 316.55723511 -216.62962341 315.6449585 C-217.93598806 312.84446468 -219.24892224 310.0471167 -220.5625 307.25 C-221.87839601 304.43803404 -223.19289474 301.62542383 -224.50608826 298.81219482 C-225.32004899 297.06951044 -226.13577297 295.32764821 -226.95350647 293.58673096 C-227.32406662 292.79530701 -227.69462677 292.00388306 -228.07641602 291.18847656 C-228.41951309 290.45668182 -228.76261017 289.72488708 -229.11610413 288.97091675 C-229.84228508 287.35167375 -230.47322261 285.69004938 -231.07617188 284.02099609 C-231.90051247 281.65179563 -231.90051247 281.65179563 -235.02734375 280.5234375 C-236.32284874 280.11474963 -237.62728837 279.73375401 -238.9375 279.375 C-239.65349365 279.17044189 -240.3694873 278.96588379 -241.10717773 278.75512695 C-243.39643205 278.12871654 -245.69213631 277.55371104 -248 277 C-249.04655762 276.74790771 -249.04655762 276.74790771 -250.11425781 276.49072266 C-261.01775442 274.02195817 -271.931796 273.73901505 -283.0625 273.75 C-284.06230392 273.75089127 -284.06230392 273.75089127 -285.08230591 273.75180054 C-292.1443616 273.77585038 -299.08339969 273.94567205 -306.08129883 274.94262695 C-308 275 -308 275 -310.625 273.4375 C-312.37385021 270.33726554 -312.52255002 268.50855014 -312 265 C-310.36844151 262.78151122 -309.24275725 262.07369416 -306.59375 261.26953125 C-287.38012991 258.43115556 -268.01405121 259.44853086 -248.94628906 262.71875 C-246.61461753 263.05568999 -244.35188947 263.11426184 -242 263 C-247.73350292 241.34422655 -247.73350292 241.34422655 -261.1953125 225.11328125 C-264.95049341 223.6450871 -268.76985723 222.90820171 -272.75341797 222.35058594 C-274.88176554 222.01845085 -276.824045 221.51955991 -278.87890625 220.8828125 C-289.66148916 217.64543347 -300.74738583 217.23842301 -311.93261719 216.85839844 C-313.18977539 216.80200195 -314.44693359 216.74560547 -315.7421875 216.6875 C-316.8751123 216.65011719 -318.00803711 216.61273438 -319.17529297 216.57421875 C-322 216 -322 216 -323.87548828 214.1171875 C-325.25334702 211.52300795 -325.29767302 209.9023119 -325 207 C-324.67 206.01 -324.34 205.02 -324 204 C-306.76869559 198.25623186 -284.14495062 205.52043204 -267 209 C-269.01535252 202.51518646 -271.45551935 196.34588051 -274.3125 190.1875 C-274.67794922 189.35541016 -275.04339844 188.52332031 -275.41992188 187.66601562 C-278.79151906 180.40456193 -282.72651135 177.77994054 -290.16796875 174.96484375 C-292.16988755 174.27557931 -294.17669831 173.6004034 -296.1875 172.9375 C-297.76869629 172.40926636 -297.76869629 172.40926636 -299.38183594 171.87036133 C-306.89013022 169.45455576 -314.27298338 167.79996043 -322.11010742 166.92358398 C-329.22440826 166.09198044 -329.22440826 166.09198044 -332 163 C-332.66259654 160.16431142 -332.28167693 157.95760774 -332 155 C-329.49989742 152.49989742 -328.6626847 152.64701808 -325.1875 152.5625 C-317.15472208 152.65998517 -309.58550407 154.81539575 -301.85546875 156.80859375 C-297.90889574 157.81814638 -294.04369577 158.52005248 -290 159 C-292.61557982 150.11501513 -296.6465471 141.9593011 -300.625 133.625 C-301.66606575 131.43452446 -302.70565988 129.24336686 -303.74349976 127.05136108 C-304.3857457 125.69587184 -305.03004681 124.34135393 -305.67666626 122.98794556 C-309.05922711 115.87027591 -309.97589213 109.87219653 -309 102 C-307.02757253 97.58421946 -304.17598773 94.89599065 -300.375 92 C-294.28448251 90.19540222 -287.05316221 89.54448108 -281.1875 92.4375 C-273.95136302 97.66464753 -269.07415637 106.62832122 -264.0625 113.875 C-259.12217631 120.9784412 -254.14058039 128.03946258 -249 135 C-246.62777738 132.62777738 -246.31590455 131.12258637 -245.44921875 127.90625 C-245.16240234 126.875 -244.87558594 125.84375 -244.58007812 124.78125 C-243.99374794 122.62581298 -243.41032292 120.46958317 -242.83007812 118.3125 C-238.38495172 102.38495172 -238.38495172 102.38495172 -233 97 C-226.53846154 97.46153846 -226.53846154 97.46153846 -224 100 C-223.49470287 105.39205225 -224.67054573 109.42965626 -226.75 114.3125 C-229.95127337 122.35215842 -232.07598712 130.39066966 -233.60400391 138.90283203 C-233.96834465 140.83235543 -234.42344726 142.74415502 -234.88671875 144.65234375 C-236.15838354 151.72344797 -234.98122366 155.80717395 -231.0625 161.63452148 C-228.99834027 164.48049411 -226.85434529 167.24427979 -224.63623047 169.97167969 C-221.99693514 173.24342925 -219.50397026 176.6242271 -217 180 C-214.73575848 176.60363771 -213.91110377 173.32048468 -212.875 169.4375 C-209.29796559 156.73834258 -203.49573428 136.66382285 -192 129 C-186.55555556 129.44444444 -186.55555556 129.44444444 -184 132 C-183.11860718 138.52729587 -185.48164983 142.48999482 -188.625 147.9375 C-194.83747691 159.24346345 -199.3112578 170.46750836 -202.375 183 C-202.54306152 183.6820752 -202.71112305 184.36415039 -202.88427734 185.06689453 C-204.8398551 193.24970604 -204.8398551 193.24970604 -202.90380859 201.12304688 C-201.35793942 203.41482495 -199.71492889 205.58196909 -198 207.75 C-196.80406148 209.32405776 -195.61005287 210.89958367 -194.41796875 212.4765625 C-193.83321777 213.24129883 -193.2484668 214.00603516 -192.64599609 214.79394531 C-189.71165966 218.72670473 -187.11139886 222.86250031 -184.48828125 227.0078125 C-183.99714844 227.66523438 -183.50601563 228.32265625 -183 229 C-182.34 229 -181.68 229 -181 229 C-180.75507813 228.16082031 -180.51015625 227.32164062 -180.2578125 226.45703125 C-174.43353141 207.71891314 -165.53400621 190.84358435 -154 175 C-153.29746094 174.02804688 -152.59492188 173.05609375 -151.87109375 172.0546875 C-150 170 -150 170 -146.4375 169.125 C-143 169 -143 169 -140 170 C-138.92926725 174.00481859 -138.32328168 176.54272987 -140.10107422 180.37109375 C-141.79553391 182.98519386 -143.58610948 185.49460578 -145.4375 188 C-151.54047596 196.69308627 -156.72023156 205.28560497 -161 215 C-161.28311035 215.63631348 -161.5662207 216.27262695 -161.85791016 216.92822266 C-169.02115423 232.03206292 -169.02115423 232.03206292 -169 248 C-167.46135829 250.50570546 -165.89608157 252.86660789 -164.1875 255.25 C-163.70265137 255.9402124 -163.21780273 256.6304248 -162.71826172 257.34155273 C-161.685855 258.80894374 -160.64961251 260.27364234 -159.60986328 261.73583984 C-157.99114735 264.01245064 -156.38295677 266.29616458 -154.77734375 268.58203125 C-152.3114967 272.08904724 -149.84134012 275.59287267 -147.35644531 279.08642578 C-146.42279993 280.40354467 -145.49540899 281.72511213 -144.57324219 283.05029297 C-143.40615864 284.71725639 -142.20623301 286.36114278 -141 288 C-140.67 288 -140.34 288 -140 288 C-139.96559814 287.30140869 -139.93119629 286.60281738 -139.89575195 285.88305664 C-138.64711273 262.30990954 -138.64711273 262.30990954 -135.625 252.1875 C-135.42817627 251.52049072 -135.23135254 250.85348145 -135.02856445 250.16625977 C-133.70102773 246.11930337 -132.03049229 243.00753401 -129 240 C-125.00561826 240.06886865 -122.8685771 240.1314229 -120 243 C-119.60766615 248.08165753 -120.42148876 252.16602821 -121.9375 257 C-130.43051706 284.27506554 -123.71082757 311.56178452 -113 337 C-43.04 337 26.92 337 99 337 C108.23540972 314.83501667 111.74747851 293.24243553 104 270 C101.55369444 271.1290641 99.50934313 272.35372937 97.3125 273.9375 C87.49543094 280.0500147 77.03449082 280.30664002 65.875 277.875 C56.48586202 275.23314215 49.19435295 270.42899625 42 264 C41.34 264 40.68 264 40 264 C38.95502642 265.16965793 37.963904 266.38768092 37 267.625 C32.98097424 272.3656045 28.44312181 275.11144448 23 278 C21.9275 278.598125 20.855 279.19625 19.75 279.8125 C12.23732899 283.05660794 2.36323265 283.52253317 -5.3359375 280.8359375 C-16.00335162 275.69977515 -22.81974812 267.88967641 -27.35742188 256.95800781 C-28.52401751 253.40325971 -28.84097264 249.77256819 -29.1875 246.0625 C-29.26935547 245.28326172 -29.35121094 244.50402344 -29.43554688 243.70117188 C-29.63364171 241.80179203 -29.81823841 239.90101238 -30 238 C-30.93199219 237.97421875 -31.86398437 237.9484375 -32.82421875 237.921875 C-48.11216114 237.24172387 -62.15409666 233.71590191 -72.9375 222.0625 C-77.69210587 216.15629895 -80.3696139 210.56463324 -81 203 C-89.28987018 204.57727618 -98.24337296 213.27044576 -103.125 219.875 C-105 222 -105 222 -107.9375 223.125 C-111 223 -111 223 -113.9375 220.9375 C-116 218 -116 218 -115.91015625 215.15625 C-113.47279488 206.70394106 -104.56498147 200.25618931 -97.6171875 195.33984375 C-97.08351563 194.89769531 -96.54984375 194.45554688 -96 194 C-96 193.34 -96 192.68 -96 192 C-96.721875 191.34 -97.44375 190.68 -98.1875 190 C-103.30912947 185.11183513 -106.77797863 177.50927129 -107.12597656 170.44140625 C-107.13081055 169.49136719 -107.13564453 168.54132813 -107.140625 167.5625 C-107.05592405 151.05020645 -107.05592405 151.05020645 -113 136 C-113.59167969 135.04222656 -114.18335938 134.08445312 -114.79296875 133.09765625 C-122.83020572 121.14607632 -133.35183107 115.0892595 -147.02099609 111.28442383 C-156.63653192 108.55641442 -163.13048925 105.19611227 -168.1875 96.27734375 C-169.32798701 94.19469368 -170.44933116 92.10277719 -171.56518555 90.00683594 C-178.00302409 78.14846207 -187.73932787 70.71449656 -200.40625 66.12890625 C-212.9665064 62.82956354 -226.27865736 65.19370757 -237.8125 70.6875 Z " fill="#010101" transform="translate(389,0)"/>
<path d="M0 0 C5.23721239 4.81629269 8.66462224 9.86283788 11.96484375 16.07421875 C17.99036347 27.22852666 23.78381153 31.76009151 35.90234375 35.63671875 C37.23797363 36.02935913 37.23797363 36.02935913 38.60058594 36.42993164 C51.93998155 40.36798319 61.31697112 47.0129364 68.76171875 58.8125 C73.91525425 68.66556906 74.93116009 76.52466155 74.890625 87.58398438 C75.03333414 98.12500036 77.64638054 106.7709475 84.40234375 114.94921875 C85.06234375 115.27921875 85.72234375 115.60921875 86.40234375 115.94921875 C84.91673866 119.65912759 82.89445402 121.34250915 79.71484375 123.69921875 C74.1038526 128.07416547 68.80070977 132.38338541 66.15234375 139.13671875 C66.18488914 142.15993624 66.18488914 142.15993624 68.46484375 144.88671875 C71.20368604 147.24791895 71.20368604 147.24791895 74.328125 146.859375 C78.05989578 145.75454325 79.14214349 144.47982615 81.52734375 141.44921875 C86.45434999 135.63401071 91.92117213 130.97805516 98.40234375 126.94921875 C99.39234375 126.94921875 100.38234375 126.94921875 101.40234375 126.94921875 C101.60859375 128.22796875 101.81484375 129.50671875 102.02734375 130.82421875 C104.13668856 140.14049167 109.56517618 147.58901551 117.40234375 152.94921875 C129.09228767 159.77097848 139.13616401 161.29281923 152.40234375 161.94921875 C152.49708984 163.54636719 152.49708984 163.54636719 152.59375 165.17578125 C153.56885859 177.74449435 156.73208592 188.33548071 165.40234375 197.94921875 C167.77229288 199.71864203 167.77229288 199.71864203 170.33984375 201.13671875 C171.17386719 201.62527344 172.00789063 202.11382812 172.8671875 202.6171875 C181.03406696 206.90825976 190.4756635 207.46199129 199.3828125 204.76171875 C207.52634439 201.48540418 218.29759712 196.158712 222.40234375 187.94921875 C225.54355995 189.39846168 228.1412027 191.18626106 230.90234375 193.26171875 C242.09071805 201.18957569 253.80184009 204.07737113 267.40234375 202.94921875 C274.28828662 201.34133361 279.24747209 198.70756182 284.40234375 193.94921875 C285.06234375 193.94921875 285.72234375 193.94921875 286.40234375 193.94921875 C286.88820775 195.46792573 287.36565576 196.98932574 287.83984375 198.51171875 C288.24009766 199.78208984 288.24009766 199.78208984 288.6484375 201.078125 C291.94550361 213.63430942 291.50089319 227.84176544 288.71484375 240.44921875 C288.49211792 241.4688269 288.49211792 241.4688269 288.26489258 242.5090332 C286.6538809 249.07203479 284.0746368 254.53571542 281.40234375 260.94921875 C211.44234375 260.94921875 141.48234375 260.94921875 69.40234375 260.94921875 C61.71046019 243.00149045 56.99844556 228.01728896 57.08984375 208.63671875 C57.09258301 207.45698486 57.09532227 206.27725098 57.09814453 205.06176758 C57.21657443 195.16470368 58.27057901 186.19003728 61.48046875 176.79296875 C62.61328286 173.29852521 62.81548829 170.59866219 62.40234375 166.94921875 C60.33408904 164.57455593 58.9680614 164.06236228 55.90234375 163.44921875 C52.27120319 164.17544686 51.47688071 165.93427886 49.40234375 168.94921875 C48.35868334 171.3796213 47.52028071 173.61900482 46.77734375 176.13671875 C46.5656958 176.84562256 46.35404785 177.55452637 46.13598633 178.28491211 C43.18853047 189.2098583 42.95631901 200.69975862 42.40234375 211.94921875 C39.73405279 209.38563015 37.47191496 206.82488047 35.37109375 203.78125 C34.81301025 202.97864746 34.25492676 202.17604492 33.67993164 201.34912109 C33.09332764 200.49527832 32.50672363 199.64143555 31.90234375 198.76171875 C28.28722507 193.49979252 24.68224206 188.25869953 20.78125 183.203125 C20.22179687 182.46280029 19.66234375 181.72247559 19.0859375 180.9597168 C18.03569153 179.57620754 16.96506626 178.20784182 15.87109375 176.85864258 C13.09870683 173.15095279 12.05820914 170.66995941 12.42578125 165.99609375 C13.19393572 161.30305913 14.40883605 156.81303444 15.96484375 152.32421875 C16.226604 151.5564209 16.48836426 150.78862305 16.75805664 149.99755859 C19.60153966 141.94915392 23.30997898 134.4267518 27.40234375 126.94921875 C27.97984375 125.89089844 28.55734375 124.83257812 29.15234375 123.7421875 C31.53941805 119.52612804 34.02244875 115.43782185 36.83984375 111.49609375 C37.46161499 110.62440552 37.46161499 110.62440552 38.09594727 109.73510742 C39.2764214 108.09958888 40.47750792 106.47900592 41.6796875 104.859375 C43.49787268 101.78783768 43.87949583 100.4306617 43.40234375 96.94921875 C43.07234375 95.95921875 42.74234375 94.96921875 42.40234375 93.94921875 C39.54976266 93.32068393 37.28254006 92.85735508 34.40234375 92.94921875 C32.06189756 94.58753108 31.04819466 95.69827559 29.40234375 97.94921875 C28.8196875 98.68269531 28.23703125 99.41617188 27.63671875 100.171875 C15.9877706 115.37512819 5.91057477 134.2588443 1.40234375 152.94921875 C0.74234375 152.94921875 0.08234375 152.94921875 -0.59765625 152.94921875 C-2.3495665 150.6072554 -3.98657589 148.26093276 -5.59765625 145.82421875 C-8.49132369 141.49315189 -11.3733665 137.18347497 -14.546875 133.05078125 C-15.23813477 132.1383667 -15.23813477 132.1383667 -15.94335938 131.20751953 C-16.81388854 130.06677152 -17.69862941 128.93667791 -18.59960938 127.81982422 C-21.77611345 123.60305393 -22.20253842 120.03781293 -21.59765625 114.94921875 C-21.18343912 112.30040919 -20.72142569 109.79407452 -20.09765625 107.19921875 C-19.92459961 106.47750488 -19.75154297 105.75579102 -19.57324219 105.01220703 C-16.06565202 91.28341713 -10.27590671 78.37003731 -3.06640625 66.2109375 C-1.39146211 62.4913142 -1.19450862 59.98561149 -1.59765625 55.94921875 C-3.09765625 53.78255208 -3.09765625 53.78255208 -5.59765625 52.94921875 C-8.58492812 52.47199389 -8.58492812 52.47199389 -11.59765625 53.94921875 C-14.13718632 56.63366766 -15.82182254 59.7246786 -17.59765625 62.94921875 C-17.90993164 63.51624512 -18.22220703 64.08327148 -18.54394531 64.66748047 C-25.31972453 77.14935333 -30.29911218 90.13849218 -33.59765625 103.94921875 C-41.58640837 96.46550269 -50.92965113 86.0740913 -53.4609375 75.26171875 C-53.26344325 71.6102696 -52.56271 68.47918721 -51.59765625 64.94921875 C-51.23654399 63.26085758 -50.88433352 61.57057804 -50.5390625 59.87890625 C-48.59973711 50.73999914 -46.0884705 42.20130292 -42.55078125 33.55859375 C-41.24717274 29.98969832 -40.86738589 27.68171171 -41.59765625 23.94921875 C-43.66591096 21.57455593 -45.0319386 21.06236228 -48.09765625 20.44921875 C-51.72600346 21.17488819 -52.51154205 22.94264183 -54.59765625 25.94921875 C-55.68882743 28.37156294 -56.64809803 30.70686139 -57.53515625 33.19921875 C-57.78604004 33.88435547 -58.03692383 34.56949219 -58.29541016 35.27539062 C-61.08925134 43.05659922 -63.37156352 50.99044475 -65.59765625 58.94921875 C-69.59821879 55.19913866 -72.62707228 51.25360929 -75.66015625 46.69921875 C-76.62298975 45.28076905 -77.58655811 43.86281794 -78.55078125 42.4453125 C-79.04771484 41.7116748 -79.54464844 40.97803711 -80.05664062 40.22216797 C-82.65563828 36.38872878 -85.27146609 32.5679452 -87.91015625 28.76171875 C-88.38912354 28.05563477 -88.86809082 27.34955078 -89.36157227 26.62207031 C-92.91588311 21.51585996 -96.50374667 16.98052194 -102.59765625 14.94921875 C-109.5182551 14.23152702 -115.26959775 14.18722463 -120.97265625 18.48828125 C-124.40676272 21.57567504 -126.27567064 23.86610505 -126.99902344 28.54589844 C-127.49401335 39.00712821 -123.83349492 46.54794272 -119.34765625 55.69921875 C-118.65653823 57.15254677 -117.96772152 58.60697147 -117.28125 60.0625 C-115.97569714 62.82338205 -114.66032259 65.57912287 -113.33398438 68.33007812 C-107.59765625 80.25090924 -107.59765625 80.25090924 -107.59765625 82.94921875 C-112.54981389 82.36144561 -117.24620164 81.32687009 -122.07299805 80.08227539 C-134.67323995 76.68213578 -134.67323995 76.68213578 -147.59765625 76.94921875 C-150.17756426 79.52912676 -149.91364463 81.45166336 -150.05859375 84.9765625 C-149.73759965 87.06429703 -149.73759965 87.06429703 -148.08984375 88.62890625 C-144.63808462 90.45758115 -141.16948372 90.70934775 -137.34765625 91.13671875 C-129.19374352 92.23125226 -121.58327219 94.2815854 -113.78515625 96.88671875 C-112.25616699 97.39078247 -112.25616699 97.39078247 -110.69628906 97.9050293 C-98.3760781 102.14690133 -98.3760781 102.14690133 -94.81494141 107.75830078 C-94.34362793 108.81388184 -93.87231445 109.86946289 -93.38671875 110.95703125 C-92.86464844 112.10816406 -92.34257813 113.25929688 -91.8046875 114.4453125 C-91.28261719 115.64285156 -90.76054688 116.84039062 -90.22265625 118.07421875 C-89.67338067 119.29234672 -89.12261223 120.5098027 -88.5703125 121.7265625 C-84.59765625 130.59783247 -84.59765625 130.59783247 -84.59765625 132.94921875 C-85.87898438 132.68367187 -87.1603125 132.418125 -88.48046875 132.14453125 C-114.98984717 125.71694328 -114.98984717 125.71694328 -141.59765625 127.94921875 C-141.82453125 129.18671875 -142.05140625 130.42421875 -142.28515625 131.69921875 C-142.41277344 132.3953125 -142.54039062 133.09140625 -142.671875 133.80859375 C-142.56850859 136.78989857 -141.67587794 137.83357605 -139.59765625 139.94921875 C-136.80597843 140.5890372 -136.80597843 140.5890372 -133.5859375 140.56640625 C-132.36430908 140.61265137 -131.14268066 140.65889648 -129.8840332 140.70654297 C-128.57265381 140.74537598 -127.26127441 140.78420898 -125.91015625 140.82421875 C-112.93123361 141.388324 -100.67910837 143.18891916 -88.23999023 147.15380859 C-85.5920971 148.00674792 -85.5920971 148.00674792 -82.76977539 148.45166016 C-78.94076778 149.33433919 -75.88442211 150.24768293 -73.4303894 153.49273682 C-70.55507489 158.27218945 -68.50582988 163.41995071 -66.41015625 168.57421875 C-65.74111169 170.13040765 -65.06861351 171.68511653 -64.39257812 173.23828125 C-59.59765625 184.38017046 -59.59765625 184.38017046 -59.59765625 186.94921875 C-69.05589387 186.20199831 -69.05589387 186.20199831 -73.71875 185.4375 C-89.95604581 182.79072693 -110.64849383 181.10750873 -126.59765625 185.94921875 C-129.19704346 187.93928724 -129.54021047 188.56351137 -130.03515625 191.88671875 C-129.78501773 194.96188498 -129.78501773 194.96188498 -128.22265625 197.38671875 C-125.23005619 199.16802831 -124.6595635 199.03385253 -121.3515625 198.56640625 C-102.71727594 196.38075832 -82.46370393 196.76427465 -64.21459961 201.3046875 C-61.5433815 202.0005081 -61.5433815 202.0005081 -58.56079102 202.4375 C-53.4178862 203.56171996 -50.50873879 204.67489021 -47.38647461 209.04199219 C-45.23676747 213.04177989 -43.57863677 217.23223262 -41.91015625 221.44921875 C-41.28080639 222.9478136 -40.64723357 224.44464173 -40.00952148 225.93969727 C-38.75351203 228.8972725 -37.51912319 231.86234527 -36.30273438 234.83642578 C-34.07476219 240.2566673 -31.62221803 245.56967537 -29.16015625 250.88671875 C-25.59765625 258.63753202 -25.59765625 258.63753202 -25.59765625 260.94921875 C-26.84901367 260.95856445 -28.10037109 260.96791016 -29.38964844 260.97753906 C-34.03421575 261.01742357 -38.6781196 261.08317816 -43.32226562 261.15673828 C-45.33194452 261.18495682 -47.34173459 261.20616696 -49.3515625 261.22021484 C-52.24146474 261.2416321 -55.13002915 261.28827578 -58.01953125 261.33984375 C-58.91758484 261.34107239 -59.81563843 261.34230103 -60.74090576 261.34356689 C-65.78581568 261.43293231 -65.78581568 261.43293231 -70.13378906 263.79980469 C-71.75727226 265.97364976 -71.75727226 265.97364976 -72.59765625 268.94921875 C-79.19765625 268.94921875 -85.79765625 268.94921875 -92.59765625 268.94921875 C-93.25765625 267.29921875 -93.91765625 265.64921875 -94.59765625 263.94921875 C-98.27834018 261.49542946 -100.27819344 261.64275661 -104.671875 261.53515625 C-105.35570755 261.5157901 -106.0395401 261.49642395 -106.74409485 261.47647095 C-108.9243225 261.41677878 -111.10460327 261.37033244 -113.28515625 261.32421875 C-114.76499675 261.28602932 -116.24481525 261.24697701 -117.72460938 261.20703125 C-121.34875675 261.11108673 -124.97306882 261.02701724 -128.59765625 260.94921875 C-131.24338624 255.49254677 -133.05000192 250.62812941 -133.91015625 244.57421875 C-135.45309161 236.3917371 -138.10770386 229.3989096 -144.890625 224.1875 C-147.41147035 222.66056506 -149.9789359 221.30057007 -152.59765625 219.94921875 C-167.01364234 211.55662518 -176.23212741 201.43891774 -180.59765625 184.94921875 C-180.89267457 182.04772792 -180.92978899 179.17656686 -180.91015625 176.26171875 C-180.90886719 175.46008301 -180.90757812 174.65844727 -180.90625 173.83251953 C-180.83492642 169.4166984 -180.45805175 165.56014217 -179.09765625 161.32421875 C-176.38732348 152.86745928 -175.82045824 142.56621878 -179.78515625 134.44921875 C-181.07997947 132.24363005 -182.46840219 130.14000393 -183.90234375 128.0234375 C-191.05780135 117.2902511 -192.83857043 105.58863329 -191.59765625 92.94921875 C-188.41671499 77.06333459 -178.4596013 66.46961684 -165.51953125 57.56640625 C-159.5722868 52.56201763 -157.46867 47.58261952 -155.22265625 40.32421875 C-149.453924 22.90103484 -140.41552123 9.21467914 -123.796875 0.4765625 C-114.83253528 -3.77622937 -107.00968109 -5.38599704 -97.16015625 -5.30078125 C-95.82500977 -5.31238281 -95.82500977 -5.31238281 -94.46289062 -5.32421875 C-89.31032201 -5.30916376 -84.70075277 -4.75222818 -79.70385742 -3.52246094 C-68.81520127 -1.08396741 -59.86167299 -3.17547198 -49.9921875 -7.58203125 C-33.08166345 -14.89889781 -14.22923054 -11.23360306 0 0 Z " fill="#9BD881" transform="translate(206.59765625,76.05078125)"/>
<path d="M0 0 C0.33 0 0.66 0 1 0 C1.433125 1.423125 1.433125 1.423125 1.875 2.875 C2.76825109 6.05211578 2.76825109 6.05211578 5 8 C7.3234133 8.30597965 7.3234133 8.30597965 10.05950928 8.25828552 C11.66614441 8.26852753 11.66614441 8.26852753 13.30523682 8.27897644 C14.48551453 8.27642349 15.66579224 8.27387054 16.88183594 8.27124023 C18.12094727 8.27646698 19.36005859 8.28169373 20.63671875 8.28707886 C23.3356149 8.29734411 26.03425643 8.30403943 28.73314667 8.30496025 C33.00285501 8.30689871 37.27240055 8.32494085 41.54205322 8.34571838 C52.15087417 8.39494467 62.75973957 8.42576718 73.36865234 8.44702148 C81.60604266 8.46355287 89.84329408 8.48640289 98.08059144 8.53004223 C102.32232485 8.55179861 106.56379431 8.55987823 110.80557966 8.55764949 C114.07063868 8.55971207 117.3355836 8.58107915 120.60058594 8.59936523 C121.77276672 8.59478806 122.94494751 8.59021088 124.15264893 8.585495 C129.81189673 8.63593937 134.17622148 8.67759814 139 12 C143.71340355 17.09780049 143.5733929 21.85664352 143.49609375 28.4375 C143.49754898 29.43579834 143.49900421 30.43409668 143.50050354 31.46264648 C143.49884814 33.56724983 143.4873272 35.67186573 143.46655273 37.77636719 C143.43759501 40.98945782 143.44595271 44.20089737 143.45898438 47.4140625 C143.45274644 49.46354965 143.44435507 51.51303161 143.43359375 53.5625 C143.43652939 54.51890381 143.43946503 55.47530762 143.44248962 56.46069336 C143.3691391 61.6718128 143.11979998 65.61439135 140 70 C135.40654456 73.73951609 131.80342147 74.57771371 126.03201294 74.50336456 C124.84921662 74.51208521 124.84921662 74.51208521 123.64252543 74.52098203 C120.9959109 74.53559908 118.3502213 74.5216891 115.70361328 74.50793457 C113.78879891 74.51254281 111.87398807 74.51889521 109.95918465 74.52684355 C104.69389816 74.54357049 99.42890097 74.53527515 94.16361332 74.52289867 C88.48663924 74.5138643 82.80971559 74.5278099 77.13275146 74.53881836 C66.01019316 74.55662539 54.88774268 74.55275385 43.76518011 74.5411678 C34.72741656 74.53214235 25.68968327 74.53090563 16.6519165 74.53526306 C15.36669417 74.53587599 14.08147183 74.53648893 12.75730336 74.53712043 C10.14657894 74.5383993 7.53585453 74.53969616 4.92513013 74.5410108 C-18.8697895 74.55209753 -42.66464374 74.54059091 -66.45955297 74.51964041 C-88.18465539 74.50065776 -109.90966403 74.50235626 -131.63476562 74.52148438 C-156.03926159 74.54289973 -180.44369372 74.5513243 -204.84819984 74.53903532 C-207.44943872 74.53776109 -210.05067761 74.53650361 -212.6519165 74.53526306 C-213.93184947 74.53464596 -215.21178243 74.53402886 -216.53050125 74.53339306 C-225.55971463 74.52993616 -234.58889479 74.53577581 -243.61810303 74.54518127 C-254.61839581 74.55638784 -265.61857439 74.55338944 -276.61885405 74.5320583 C-282.23374182 74.52152986 -287.84843904 74.51745667 -293.4633255 74.53065491 C-298.60030778 74.54254737 -303.73692231 74.53606815 -308.87387109 74.5147447 C-310.73515529 74.51026529 -312.59647037 74.51257478 -314.45773482 74.52224785 C-316.98293929 74.53436782 -319.50687526 74.52198216 -322.03201294 74.50336456 C-322.75895206 74.51272923 -323.48589118 74.52209389 -324.23485875 74.53174233 C-329.26874287 74.45728766 -332.12097295 73.15790242 -336 70 C-339.67591764 64.8326379 -339.45233139 59.6670504 -339.43359375 53.5625 C-339.4388356 52.56420166 -339.44407745 51.56590332 -339.44947815 50.53735352 C-339.45588372 48.43278938 -339.45458039 46.32818938 -339.44604492 44.22363281 C-339.43752761 41.0104179 -339.46632954 37.79897736 -339.49804688 34.5859375 C-339.49965892 32.53645886 -339.4990813 30.48697709 -339.49609375 28.4375 C-339.50732773 27.48109619 -339.51856171 26.52469238 -339.53013611 25.53930664 C-339.47124376 19.8821005 -338.94234093 16.38066005 -335 12 C-331.42417776 9.46630513 -328.99859645 8.62468059 -324.63263607 8.62082577 C-323.56271197 8.61260262 -322.49278787 8.60437948 -321.39044183 8.59590715 C-319.63627202 8.60522487 -319.63627202 8.60522487 -317.84666443 8.61473083 C-316.5997311 8.60949514 -315.35279777 8.60425944 -314.06807858 8.59886509 C-310.60954342 8.5847102 -307.15124315 8.58914633 -303.69269621 8.59657824 C-299.96190579 8.60131546 -296.23116964 8.58875726 -292.50039673 8.57821655 C-286.03653451 8.56223642 -279.57273497 8.55696607 -273.10885429 8.55874443 C-263.75881354 8.56112693 -254.40887307 8.54514487 -245.05885852 8.52429188 C-229.88340323 8.49076053 -214.7079569 8.46910191 -199.5324707 8.45629883 C-198.17007957 8.45514459 -198.17007957 8.45514459 -196.78016538 8.45396704 C-193.09979459 8.45086461 -189.41942378 8.44778179 -185.73905295 8.444727 C-175.60508583 8.43619488 -165.47112181 8.42529457 -155.3371582 8.41333008 C-153.97597057 8.41172805 -153.97597057 8.41172805 -152.5872842 8.41009366 C-137.46752659 8.39201393 -122.34779038 8.3660297 -107.22805363 8.33519894 C-97.89895565 8.31662623 -88.56990568 8.30572803 -79.24078894 8.30467702 C-72.85206141 8.3035752 -66.46336682 8.29564264 -60.0746532 8.28229337 C-56.38609063 8.27486044 -52.69760009 8.27079225 -49.0090313 8.27541161 C-45.01475958 8.28036607 -41.02061126 8.27007453 -37.02635193 8.25828552 C-35.85467466 8.26226662 -34.6829974 8.26624771 -33.47581476 8.27034944 C-32.40849841 8.26473405 -31.34118206 8.25911865 -30.24152279 8.25333309 C-29.31923443 8.25268099 -28.39694607 8.25202888 -27.44670957 8.25135702 C-24.76865155 7.97623296 -23.21774984 7.52279159 -21 6 C-20.34 4.68 -19.68 3.36 -19 2 C-12.73 2 -6.46 2 0 2 C0 1.34 0 0.68 0 0 Z " fill="#FCCA88" transform="translate(354,423)"/>
<path d="M0 0 C0.20625 1.27875 0.4125 2.5575 0.625 3.875 C2.73434481 13.19127292 8.16283243 20.63979676 16 26 C27.68994392 32.82175973 37.73382026 34.34360048 51 35 C51.06316406 36.06476563 51.12632812 37.12953125 51.19140625 38.2265625 C52.16651484 50.7952756 55.32974217 61.38626196 64 71 C66.36994913 72.76942328 66.36994913 72.76942328 68.9375 74.1875 C69.77152344 74.67605469 70.60554688 75.16460937 71.46484375 75.66796875 C79.63172321 79.95904101 89.07331975 80.51277254 97.98046875 77.8125 C106.12400064 74.53618543 116.89525337 69.20949325 121 61 C124.1412162 62.44924293 126.73885895 64.23704231 129.5 66.3125 C140.6883743 74.24035694 152.39949634 77.12815238 166 76 C172.88594287 74.39211486 177.84512834 71.75834307 183 67 C183.66 67 184.32 67 185 67 C185.485864 68.51870698 185.96331201 70.04010699 186.4375 71.5625 C186.70433594 72.40941406 186.97117187 73.25632812 187.24609375 74.12890625 C190.54315986 86.68509067 190.09854944 100.89254669 187.3125 113.5 C187.16401611 114.17973877 187.01553223 114.85947754 186.86254883 115.55981445 C185.25153715 122.12281604 182.67229305 127.58649667 180 134 C110.04 134 40.08 134 -32 134 C-39.69188356 116.0522717 -44.40389819 101.06807021 -44.3125 81.6875 C-44.30976074 80.50776611 -44.30702148 79.32803223 -44.30419922 78.11254883 C-44.18579147 68.21733558 -43.13804137 59.2365972 -39.91796875 49.84375 C-38.79874926 46.3765509 -38.65834551 43.62153763 -39 40 C-40.35429841 38.05630262 -40.35429841 38.05630262 -42 37 C-40.65072455 32.46152802 -38.80840652 28.68067754 -36.375 24.625 C-35.74335938 23.56539062 -35.11171875 22.50578125 -34.4609375 21.4140625 C-33.97882813 20.61742187 -33.49671875 19.82078125 -33 19 C-31.948125 19.2475 -30.89625 19.495 -29.8125 19.75 C-26.05573814 20.35406988 -26.05573814 20.35406988 -23.4375 18.5 C-21.62273386 16.6387014 -20.05371031 14.8280646 -18.4375 12.8125 C-14.33549269 7.87291005 -6.63054842 0 0 0 Z " fill="#FE8E70" transform="translate(308,203)"/>
<path d="M0 0 C5.23721239 4.81629269 8.66462224 9.86283788 11.96484375 16.07421875 C17.99036347 27.22852666 23.78381153 31.76009151 35.90234375 35.63671875 C37.23797363 36.02935913 37.23797363 36.02935913 38.60058594 36.42993164 C51.93998155 40.36798319 61.31697112 47.0129364 68.76171875 58.8125 C73.91525425 68.66556906 74.93116009 76.52466155 74.890625 87.58398438 C75.03333414 98.12500036 77.64638054 106.7709475 84.40234375 114.94921875 C85.06234375 115.27921875 85.72234375 115.60921875 86.40234375 115.94921875 C84.91673866 119.65912759 82.89445402 121.34250915 79.71484375 123.69921875 C71.4001028 130.16017292 71.4001028 130.16017292 66.33984375 139.13671875 C66.16996906 141.96049025 66.16996906 141.96049025 67.6796875 144.07421875 C68.84569374 148.71303276 66.33589902 151.78179615 64.02734375 155.76171875 C63.5890625 156.54998047 63.15078125 157.33824219 62.69921875 158.15039062 C61.61607186 160.09299103 60.5170687 162.02462107 59.40234375 163.94921875 C58.04109375 163.79453125 58.04109375 163.79453125 56.65234375 163.63671875 C53.30100957 163.62726282 53.30100957 163.62726282 51.19140625 166 C49.20198212 169.27950921 47.8566267 172.4791733 46.77734375 176.13671875 C46.5656958 176.84562256 46.35404785 177.55452637 46.13598633 178.28491211 C43.18853047 189.2098583 42.95631901 200.69975862 42.40234375 211.94921875 C39.73405279 209.38563015 37.47191496 206.82488047 35.37109375 203.78125 C34.81301025 202.97864746 34.25492676 202.17604492 33.67993164 201.34912109 C33.09332764 200.49527832 32.50672363 199.64143555 31.90234375 198.76171875 C28.28722507 193.49979252 24.68224206 188.25869953 20.78125 183.203125 C20.22179687 182.46280029 19.66234375 181.72247559 19.0859375 180.9597168 C18.03569153 179.57620754 16.96506626 178.20784182 15.87109375 176.85864258 C13.09870683 173.15095279 12.05820914 170.66995941 12.42578125 165.99609375 C13.19393572 161.30305913 14.40883605 156.81303444 15.96484375 152.32421875 C16.226604 151.5564209 16.48836426 150.78862305 16.75805664 149.99755859 C19.60153966 141.94915392 23.30997898 134.4267518 27.40234375 126.94921875 C27.97984375 125.89089844 28.55734375 124.83257812 29.15234375 123.7421875 C31.53941805 119.52612804 34.02244875 115.43782185 36.83984375 111.49609375 C37.46161499 110.62440552 37.46161499 110.62440552 38.09594727 109.73510742 C39.2764214 108.09958888 40.47750792 106.47900592 41.6796875 104.859375 C43.49787268 101.78783768 43.87949583 100.4306617 43.40234375 96.94921875 C43.07234375 95.95921875 42.74234375 94.96921875 42.40234375 93.94921875 C39.54976266 93.32068393 37.28254006 92.85735508 34.40234375 92.94921875 C32.06189756 94.58753108 31.04819466 95.69827559 29.40234375 97.94921875 C28.8196875 98.68269531 28.23703125 99.41617188 27.63671875 100.171875 C15.9877706 115.37512819 5.91057477 134.2588443 1.40234375 152.94921875 C0.74234375 152.94921875 0.08234375 152.94921875 -0.59765625 152.94921875 C-2.3495665 150.6072554 -3.98657589 148.26093276 -5.59765625 145.82421875 C-8.49132369 141.49315189 -11.3733665 137.18347497 -14.546875 133.05078125 C-15.00771484 132.44250488 -15.46855469 131.83422852 -15.94335938 131.20751953 C-16.81388854 130.06677152 -17.69862941 128.93667791 -18.59960938 127.81982422 C-21.77611345 123.60305393 -22.20253842 120.03781293 -21.59765625 114.94921875 C-21.18343912 112.30040919 -20.72142569 109.79407452 -20.09765625 107.19921875 C-19.92459961 106.47750488 -19.75154297 105.75579102 -19.57324219 105.01220703 C-16.06565202 91.28341713 -10.27590671 78.37003731 -3.06640625 66.2109375 C-1.39146211 62.4913142 -1.19450862 59.98561149 -1.59765625 55.94921875 C-3.09765625 53.78255208 -3.09765625 53.78255208 -5.59765625 52.94921875 C-8.58492812 52.47199389 -8.58492812 52.47199389 -11.59765625 53.94921875 C-14.13718632 56.63366766 -15.82182254 59.7246786 -17.59765625 62.94921875 C-17.90993164 63.51624512 -18.22220703 64.08327148 -18.54394531 64.66748047 C-25.31972453 77.14935333 -30.29911218 90.13849218 -33.59765625 103.94921875 C-41.58640837 96.46550269 -50.92965113 86.0740913 -53.4609375 75.26171875 C-53.26344325 71.6102696 -52.56271 68.47918721 -51.59765625 64.94921875 C-51.23654399 63.26085758 -50.88433352 61.57057804 -50.5390625 59.87890625 C-48.59973711 50.73999914 -46.0884705 42.20130292 -42.55078125 33.55859375 C-41.24717274 29.98969832 -40.86738589 27.68171171 -41.59765625 23.94921875 C-43.66591096 21.57455593 -45.0319386 21.06236228 -48.09765625 20.44921875 C-51.72600346 21.17488819 -52.51154205 22.94264183 -54.59765625 25.94921875 C-55.68882743 28.37156294 -56.64809803 30.70686139 -57.53515625 33.19921875 C-57.78604004 33.88435547 -58.03692383 34.56949219 -58.29541016 35.27539062 C-61.08925134 43.05659922 -63.37156352 50.99044475 -65.59765625 58.94921875 C-69.59821879 55.19913866 -72.62707228 51.25360929 -75.66015625 46.69921875 C-76.62298975 45.28076905 -77.58655811 43.86281794 -78.55078125 42.4453125 C-79.04771484 41.7116748 -79.54464844 40.97803711 -80.05664062 40.22216797 C-82.65563828 36.38872878 -85.27146609 32.5679452 -87.91015625 28.76171875 C-88.38912354 28.05563477 -88.86809082 27.34955078 -89.36157227 26.62207031 C-92.91588311 21.51585996 -96.50374667 16.98052194 -102.59765625 14.94921875 C-110.18617898 14.27246453 -115.31110088 14.57596284 -121.59765625 18.94921875 C-122.25765625 18.94921875 -122.91765625 18.94921875 -123.59765625 18.94921875 C-123.01579883 14.30838006 -121.74606023 10.5637428 -119.78515625 6.32421875 C-119.28371094 5.21820313 -118.78226562 4.1121875 -118.265625 2.97265625 C-116.61816413 -0.01360772 -115.26969956 -1.94673236 -112.59765625 -4.05078125 C-107.53073873 -5.33910637 -102.54222142 -5.2346385 -97.34765625 -5.23828125 C-95.99220703 -5.25665039 -95.99220703 -5.25665039 -94.609375 -5.27539062 C-89.39484907 -5.286645 -84.75368202 -4.77588613 -79.69726562 -3.5246582 C-68.82046133 -1.06978877 -59.85096695 -3.18025205 -49.9921875 -7.58203125 C-33.08166345 -14.89889781 -14.22923054 -11.23360306 0 0 Z " fill="#AADE92" transform="translate(206.59765625,76.05078125)"/>
<path d="M0 0 C0.8291497 -0.00256327 1.6582994 -0.00512655 2.51257485 -0.0077675 C5.28878885 -0.01270592 8.06445811 0.00378846 10.84062195 0.02018738 C12.8314818 0.02103364 14.82234259 0.02055853 16.8132019 0.01885986 C22.21777405 0.01799844 27.62214682 0.03564808 33.0266726 0.05658174 C38.67478442 0.075324 44.3229007 0.07709705 49.97103882 0.08065796 C60.66653855 0.08998562 71.3619464 0.11460921 82.05740565 0.14470643 C94.23381872 0.17822796 106.41023615 0.1947308 118.58668387 0.20979273 C143.63451563 0.24115808 168.68226579 0.29393265 193.73002625 0.36076355 C193.75213669 0.95600327 193.77424713 1.55124298 193.79702759 2.16452026 C193.9023489 4.90079958 194.01729605 7.63659646 194.13237 10.3724823 C194.1842749 11.77669434 194.1842749 11.77669434 194.23722839 13.20927429 C195.04677004 31.8368682 202.55977976 47.7889846 214.04252625 62.2006073 C215.73002625 64.36076355 215.73002625 64.36076355 215.73002625 65.36076355 C187.29591384 65.4520169 158.86181984 65.52280375 130.42758968 65.56502487 C127.07055657 65.57002769 123.71352376 65.57520498 120.35649109 65.58049011 C119.68816724 65.58153935 119.0198434 65.5825886 118.33126731 65.58366963 C107.51031027 65.60107416 96.68943824 65.63261208 85.86853163 65.66937473 C74.76500969 65.70678288 63.66152244 65.72869973 52.55793917 65.73711753 C46.3213057 65.74233694 40.08486504 65.75462309 33.8482933 65.78368378 C27.97965551 65.81080875 22.1112902 65.81921433 16.24259567 65.81319427 C14.08749919 65.81429581 11.9323937 65.82226684 9.77735138 65.83758545 C6.83638506 65.85746731 3.89644943 65.85270895 0.95545959 65.84178162 C0.10136423 65.85343298 -0.75273114 65.86508435 -1.63270819 65.87708879 C-6.98127248 65.8233201 -10.0308152 64.92100617 -14.26997375 61.36076355 C-17.9458914 56.19340145 -17.72230515 51.02781395 -17.7035675 44.92326355 C-17.70880936 43.92496521 -17.71405121 42.92666687 -17.7194519 41.89811707 C-17.72585747 39.79355293 -17.72455414 37.68895293 -17.71601868 35.58439636 C-17.70750137 32.37118145 -17.73630329 29.15974091 -17.76802063 25.94670105 C-17.76963267 23.89722241 -17.76905505 21.84774064 -17.7660675 19.79826355 C-17.77730148 18.84185974 -17.78853546 17.88545593 -17.80010986 16.90007019 C-17.74121751 11.24286405 -17.21231468 7.7414236 -13.26997375 3.36076355 C-9.01464307 0.08597033 -5.18128064 -0.05869369 0 0 Z " fill="#FCBF71" transform="translate(32.26997375488281,431.6392364501953)"/>
<path d="M0 0 C3.25 0.453125 3.25 0.453125 5.75 3.03125 C6.60373693 4.24106474 7.43561246 5.46647979 8.25 6.703125 C8.71220947 7.36844238 9.17441895 8.03375977 9.65063477 8.71923828 C10.66096124 10.1765779 11.66262802 11.63994921 12.65673828 13.10839844 C14.29842477 15.5243894 15.97039314 17.91657442 17.65234375 20.3046875 C20.03331589 23.68550908 22.40595147 27.07183814 24.76953125 30.46484375 C27.95503529 35.03504356 31.15976123 39.59130841 34.375 44.140625 C35.10577759 45.17485596 35.10577759 45.17485596 35.85131836 46.22998047 C36.82817403 47.61222231 37.80514286 48.99438419 38.78222656 50.37646484 C41.27320986 53.90080016 43.76144903 57.42707201 46.25 60.953125 C47.24998722 62.36980068 48.24998722 63.78646736 49.25 65.203125 C55.25 73.703125 55.25 73.703125 56.74975586 75.82788086 C57.75044188 77.24545154 58.75125583 78.66293192 59.75219727 80.08032227 C62.24275451 83.60743072 64.73111592 87.13604717 67.21484375 90.66796875 C72.32232086 97.92547612 77.47045023 105.14892086 82.6875 112.328125 C87.7137856 119.25004689 92.57203954 126.27250046 97.37695312 133.34936523 C101.57822919 139.51825573 105.91376839 145.57841899 110.3046875 151.61328125 C114.95647905 158.01646674 119.49320743 164.49580601 124.01708984 170.98974609 C127.89175755 176.54110773 131.82980548 182.04137706 135.8125 187.515625 C140.42826439 193.86849741 144.93877797 200.28603712 149.375 206.765625 C149.91970947 207.5604126 150.46441895 208.3552002 151.02563477 209.17407227 C156.26394213 216.86304974 159.17550859 223.22965076 162.25 232.453125 C141.79 232.453125 121.33 232.453125 100.25 232.453125 C92.38694722 216.72701944 92.38694722 216.72701944 89.8125 210.9921875 C89.53047729 210.3670224 89.24845459 209.7418573 88.95788574 209.0977478 C88.36088492 207.77431713 87.76498298 206.45039021 87.17016602 205.12597656 C81.80418159 193.18384938 76.33225487 181.2955532 70.75 169.453125 C65.75164484 158.84339355 60.83523241 148.20067907 56 137.515625 C50.37605425 125.08998284 44.67970745 112.6995629 38.9375 100.328125 C38.53861572 99.46857208 38.13973145 98.60901917 37.72875977 97.72341919 C36.11056579 94.23648189 34.49222462 90.74961297 32.87362671 87.26286316 C26.72730483 74.02097662 20.60110641 60.76987744 14.50205994 47.50614929 C12.31254117 42.74822967 10.1078265 37.9976947 7.8918457 33.25204468 C6.4653336 30.19236254 5.0479359 27.12851522 3.63244629 24.0637207 C2.96877035 22.63214927 2.3011384 21.20240421 1.62927246 19.7746582 C0.70846379 17.81669868 -0.19806162 15.85271164 -1.1015625 13.88671875 C-1.61541504 12.78384521 -2.12926758 11.68097168 -2.65869141 10.54467773 C-3.80967786 7.28406442 -4.04403846 4.88367862 -3.75 1.453125 C-2.75 0.453125 -2.75 0.453125 0 0 Z " fill="#FDF6E4" transform="translate(97.75,104.546875)"/>
<path d="M0 0 C3.27036728 -0.14510162 6.53991007 -0.23399373 9.8125 -0.3125 C10.74126953 -0.35439453 11.67003906 -0.39628906 12.62695312 -0.43945312 C15.17448186 -0.4854374 17.49703123 -0.4835612 20 0 C21.69921875 2.39453125 21.69921875 2.39453125 23 5 C26.57996259 6.36900354 26.57996259 6.36900354 30 7 C29.97905273 7.73412109 29.95810547 8.46824219 29.93652344 9.22460938 C29.33823282 33.41372633 32.43537936 51.7446697 46 72 C28.37146418 72.0934737 10.74300579 72.163994 -6.88572121 72.20724869 C-15.07119663 72.22786712 -23.25651799 72.25597386 -31.44189453 72.30175781 C-38.57692645 72.34164773 -45.7118468 72.36743804 -52.84698713 72.37635398 C-56.62445666 72.38156513 -60.401607 72.39379785 -64.17897415 72.42292023 C-67.73635388 72.45012368 -71.29328373 72.45843524 -74.8507576 72.45243073 C-76.77481074 72.45405131 -78.69881517 72.4755484 -80.6227417 72.49768066 C-91.22221217 72.44711306 -91.22221217 72.44711306 -96 68 C-99.67591764 62.8326379 -99.45233139 57.6670504 -99.43359375 51.5625 C-99.4388356 50.56420166 -99.44407745 49.56590332 -99.44947815 48.53735352 C-99.45588372 46.43278938 -99.45458039 44.32818938 -99.44604492 42.22363281 C-99.43752761 39.0104179 -99.46632954 35.79897736 -99.49804688 32.5859375 C-99.49965892 30.53645886 -99.4990813 28.48697709 -99.49609375 26.4375 C-99.50732773 25.48109619 -99.51856171 24.52469238 -99.53013611 23.53930664 C-99.47124376 17.8821005 -98.94234093 14.38066005 -95 10 C-90.74063885 6.72155295 -86.88053474 6.57384404 -81.69311523 6.61523438 C-80.86975677 6.6098616 -80.04639832 6.60448883 -79.1980896 6.59895325 C-77.41606934 6.58919299 -75.63400164 6.5862258 -73.85195732 6.58930969 C-71.03161338 6.59379289 -68.21189514 6.57977443 -65.39161682 6.56091309 C-58.38977157 6.51791724 -51.38794044 6.50687432 -44.38598633 6.49468994 C-38.46395147 6.48316801 -32.54220241 6.45962885 -26.62028694 6.41999817 C-23.84158003 6.40641129 -21.06325783 6.41060125 -18.28453064 6.41540527 C-16.58217882 6.40606625 -14.87983127 6.39589783 -13.17749023 6.38476562 C-12.01862556 6.39398796 -12.01862556 6.39398796 -10.83634949 6.40339661 C-7.65557332 6.36682796 -5.3694425 6.20165767 -2.55140686 4.66345215 C-0.76041242 2.97421773 -0.76041242 2.97421773 0 0 Z " fill="#FCCA88" transform="translate(114,345)"/>
<path d="M0 0 C1.02996094 -0.01224609 2.05992187 -0.02449219 3.12109375 -0.03710938 C14.02783598 -0.05768813 23.60353781 1.86458995 33.75 5.8125 C34.66048096 6.16513916 35.57096191 6.51777832 36.5090332 6.88110352 C48.4270873 11.64092592 58.2531517 18.09794143 67.375 27.1875 C68.01050781 27.79980469 68.64601563 28.41210938 69.30078125 29.04296875 C80.47694037 40.665183 83.7289567 54.9151581 83.625 70.5 C83.63273438 71.67884766 83.64046875 72.85769531 83.6484375 74.07226562 C83.64585937 75.19955078 83.64328125 76.32683594 83.640625 77.48828125 C83.63836914 78.51091064 83.63611328 79.53354004 83.63378906 80.5871582 C83.375 83.1875 83.375 83.1875 81.375 86.1875 C80.28703125 85.65640625 79.1990625 85.1253125 78.078125 84.578125 C58.93503844 75.33535434 38.54354554 68.72913897 17.1875 74.75 C3.83050162 79.71964039 -5.56668299 88.71050304 -13.625 100.1875 C-18.55510287 100.03810294 -20.81884443 97.40177432 -24.07421875 94.07421875 C-27.24221984 90.21995042 -27.86975913 87.28548377 -27.8984375 82.3125 C-27.9190625 81.16136719 -27.9396875 80.01023437 -27.9609375 78.82421875 C-27.98664277 76.43105821 -28.00507031 74.03780657 -28.015625 71.64453125 C-28.35252539 54.78079504 -35.05130184 41.29634558 -46.8046875 29.34375 C-49.68777312 25.92859279 -49.68777312 25.92859279 -49.625 23.1875 C-37.65890699 6.92977026 -19.52163816 0.01194715 0 0 Z " fill="#FCBF71" transform="translate(323.625,84.8125)"/>
<path d="M0 0 C0.20625 1.27875 0.4125 2.5575 0.625 3.875 C2.81821071 13.56168066 8.39447014 19.97039074 16 26 C16.66 26.66 17.32 27.32 18 28 C17.45486018 30.20875617 16.80624739 32.3918588 16.125 34.5625 C13.70743842 43.48478812 13.5369776 52.38778847 13.5 61.5625 C13.49019104 62.25352814 13.48038208 62.94455627 13.47027588 63.65652466 C13.18042224 88.08193442 22.08302298 112.73186646 37.78515625 131.49609375 C39 133 39 133 39 134 C15.57 134 -7.86 134 -32 134 C-39.69188356 116.0522717 -44.40389819 101.06807021 -44.3125 81.6875 C-44.30976074 80.50776611 -44.30702148 79.32803223 -44.30419922 78.11254883 C-44.18579147 68.21733558 -43.13804137 59.2365972 -39.91796875 49.84375 C-38.79874926 46.3765509 -38.65834551 43.62153763 -39 40 C-40.35429841 38.05630262 -40.35429841 38.05630262 -42 37 C-40.65072455 32.46152802 -38.80840652 28.68067754 -36.375 24.625 C-35.74335938 23.56539062 -35.11171875 22.50578125 -34.4609375 21.4140625 C-33.97882813 20.61742187 -33.49671875 19.82078125 -33 19 C-31.948125 19.2475 -30.89625 19.495 -29.8125 19.75 C-26.05573814 20.35406988 -26.05573814 20.35406988 -23.4375 18.5 C-21.62273386 16.6387014 -20.05371031 14.8280646 -18.4375 12.8125 C-14.33549269 7.87291005 -6.63054842 0 0 0 Z " fill="#FE7E59" transform="translate(308,203)"/>
<path d="M0 0 C4.69187314 3.74918083 6.2083332 7.36577133 7.75 12.9375 C7.95753906 13.62779297 8.16507812 14.31808594 8.37890625 15.02929688 C12.71907513 29.79987161 12.45876553 44.00600801 6 58 C1.25191297 66.04408918 -5.88926806 72.57850938 -14.859375 75.52734375 C-20.34997412 76.73968407 -25.13889153 76.89476369 -30.25 74.4375 C-37.22578968 68.25441369 -41.54388828 62.62537787 -42.31640625 53.09765625 C-42.90523501 38.28352534 -38.76465562 27.78935925 -28.8984375 16.62109375 C-23.78498591 11.28178299 -18.22091698 6.97561913 -12 3 C-11.14921875 2.45085937 -10.2984375 1.90171875 -9.421875 1.3359375 C-6.0294516 -0.53536702 -3.8141647 -0.54488067 0 0 Z " fill="#B9E2A5" transform="translate(416,192)"/>
<path d="M0 0 C0 0.66 0 1.32 0 2 C-1.74629188 3.3922327 -3.54991626 4.71278729 -5.375 6 C-16.53016913 14.13824802 -26.61774584 24.12028334 -31.8125 37.1875 C-32.204375 38.115625 -32.59625 39.04375 -33 40 C-41.07725385 42.69241795 -50.30870391 41.35390944 -58 38 C-65.07220611 34.27184023 -70.40209598 29.79371205 -73 22 C-73.83852056 14.03405466 -71.2237206 8.48439347 -66.6015625 2.0546875 C-48.52649587 -18.40592092 -21.05293438 -10.52646719 0 0 Z " fill="#AADD92" transform="translate(395,182)"/>
<path d="M0 0 C17.11136867 2.05949892 33.0229729 9.46970835 44 23 C49.86648743 32.42152474 50.81814237 41.05302456 50 52 C48.1797213 58.88585429 43.77758447 62.79640906 37.75 66.3125 C28.97635083 68.50591229 20.01505033 66.99168709 12.2890625 62.3828125 C8.19862426 59.58787962 4.2492662 56.77093738 1 53 C1.12214619 49.88527215 1.67595053 47.14017405 2.52734375 44.14453125 C6.45310005 29.32981587 3.37810263 14.58314839 0 0 Z " fill="#AADD92" transform="translate(437,198)"/>
<path d="M0 0 C0.27972656 0.65484375 0.55945313 1.3096875 0.84765625 1.984375 C5.64620051 12.90839216 10.92907833 22.425994 19.27734375 31.0390625 C21 33 21 33 21 35 C21.56074219 35.24492187 22.12148438 35.48984375 22.69921875 35.7421875 C25.42451428 37.23207742 27.48250914 39.07059946 29.8125 41.125 C42.68753731 51.79976392 57.85475494 57.28067653 74 61 C74 61.33 74 61.66 74 62 C72.99582031 62.02578125 71.99164063 62.0515625 70.95703125 62.078125 C53.88019747 62.70383464 39.83802985 67.24281804 27.79296875 79.93359375 C25.00121522 83.1511049 22.44703556 86.51482814 20 90 C15.06989713 89.85060294 12.80615557 87.21427432 9.55078125 83.88671875 C6.38278016 80.03245042 5.75524087 77.09798377 5.7265625 72.125 C5.7059375 70.97386719 5.6853125 69.82273437 5.6640625 68.63671875 C5.63835723 66.24355821 5.61992969 63.85030657 5.609375 61.45703125 C5.27247461 44.59329504 -1.42630184 31.10884558 -13.1796875 19.15625 C-16.11139069 15.68350288 -16.11139069 15.68350288 -16 13 C-14.30575698 10.90322407 -12.70733927 9.19148856 -10.75 7.375 C-10.24597656 6.88515625 -9.74195313 6.3953125 -9.22265625 5.890625 C-3.09061219 0 -3.09061219 0 0 0 Z " fill="#F6B357" transform="translate(290,95)"/>
<path d="M0 0 C2.34765625 0.83984375 2.34765625 0.83984375 4.09765625 3.52734375 C7.00568569 11.23362176 6.54601985 19.21966326 6.53515625 27.33984375 C6.53524689 28.36863647 6.53524689 28.36863647 6.53533936 29.41821289 C6.52406544 38.41951643 6.2880243 47.37001498 5.47265625 56.33984375 C5.35506958 57.64405273 5.35506958 57.64405273 5.23510742 58.97460938 C4.73506181 63.80342949 3.82704789 68.21519089 2.34765625 72.83984375 C1.17332031 72.25976562 -0.00101562 71.6796875 -1.2109375 71.08203125 C-15.91903679 63.90648543 -30.22482034 57.49688089 -46.65234375 55.83984375 C-45.16204229 50.26664537 -42.4200001 46.04889612 -39.21484375 41.33984375 C-38.68133301 40.54956787 -38.14782227 39.75929199 -37.59814453 38.94506836 C-10.58095275 -0.63890878 -10.58095275 -0.63890878 0 0 Z " fill="#B8E1A4" transform="translate(382.65234375,15.16015625)"/>
<path d="M0 0 C5.27811704 3.0517508 9.06296684 7.71272782 12.1875 12.875 C13.66793106 19.7836783 13.32508094 26.02256886 10.15234375 32.390625 C6.61944072 37.70474099 1.82045438 41.54089881 -4.25 43.5 C-11.31124918 44.40772411 -17.47889553 43.85876667 -23.25 39.5 C-29.28159855 33.89752704 -32.20793601 28.91572656 -32.625 20.625 C-32.4564004 14.37744814 -30.67158839 10.06314262 -26.37890625 5.51953125 C-18.88130681 -1.35444933 -9.80992714 -4.32172229 0 0 Z " fill="#040302" transform="translate(454.25,443.5)"/>
<path d="M0 0 C5.27811704 3.0517508 9.06296684 7.71272782 12.1875 12.875 C13.66793106 19.7836783 13.32508094 26.02256886 10.15234375 32.390625 C6.61944072 37.70474099 1.82045438 41.54089881 -4.25 43.5 C-11.31124918 44.40772411 -17.47889553 43.85876667 -23.25 39.5 C-29.28159855 33.89752704 -32.20793601 28.91572656 -32.625 20.625 C-32.4564004 14.37744814 -30.67158839 10.06314262 -26.37890625 5.51953125 C-18.88130681 -1.35444933 -9.80992714 -4.32172229 0 0 Z " fill="#040301" transform="translate(77.25,443.5)"/>
<path d="M0 0 C5.27811704 3.0517508 9.06296684 7.71272782 12.1875 12.875 C13.66793106 19.7836783 13.32508094 26.02256886 10.15234375 32.390625 C6.61944072 37.70474099 1.82045438 41.54089881 -4.25 43.5 C-11.31124918 44.40772411 -17.47889553 43.85876667 -23.25 39.5 C-29.28159855 33.89752704 -32.20793601 28.91572656 -32.625 20.625 C-32.4564004 14.37744814 -30.67158839 10.06314262 -26.37890625 5.51953125 C-18.88130681 -1.35444933 -9.80992714 -4.32172229 0 0 Z " fill="#040302" transform="translate(454.25,363.5)"/>
<path d="M0 0 C5.27811704 3.0517508 9.06296684 7.71272782 12.1875 12.875 C13.66793106 19.7836783 13.32508094 26.02256886 10.15234375 32.390625 C6.61944072 37.70474099 1.82045438 41.54089881 -4.25 43.5 C-11.31124918 44.40772411 -17.47889553 43.85876667 -23.25 39.5 C-29.28159855 33.89752704 -32.20793601 28.91572656 -32.625 20.625 C-32.4564004 14.37744814 -30.67158839 10.06314262 -26.37890625 5.51953125 C-18.88130681 -1.35444933 -9.80992714 -4.32172229 0 0 Z " fill="#040302" transform="translate(77.25,363.5)"/>
<path d="M0 0 C7.32565645 -0.75608839 13.93458194 0.47175084 21 2.25 C22.22638184 2.55683716 22.22638184 2.55683716 23.47753906 2.86987305 C25.13542335 3.3050759 26.78543579 3.7712949 28.42651367 4.26611328 C31.01362921 5.05351625 31.01362921 5.05351625 33.78637695 5.47998047 C37.6249582 6.36644444 40.70742987 7.29418206 43.1708374 10.54516602 C46.04477898 15.32357648 48.09242126 20.47219508 50.1875 25.625 C50.85654456 27.1811889 51.52904274 28.73589778 52.20507812 30.2890625 C57 41.43095171 57 41.43095171 57 44 C49.52595244 43.4095347 42.12189615 42.54871016 34.7109375 41.40625 C31.07556994 40.88714892 31.07556994 40.88714892 27.7265625 41.28125 C24.20575602 41.53467566 22.22624472 41.48134617 19 40 C15.04911591 35.57650833 12.66825936 29.9777007 10.21435547 24.63720703 C8.98209118 21.96110754 7.68924242 19.32224252 6.37890625 16.68359375 C4.76917461 13.40493329 3.16668574 10.12402292 1.6171875 6.81640625 C1.14708252 5.81782593 1.14708252 5.81782593 0.66748047 4.79907227 C0 3 0 3 0 0 Z " fill="#AADE92" transform="translate(90,219)"/>
<path d="M0 0 C6.32519888 -0.18197497 11.85778125 0.34625855 18 1.8125 C19.11375 2.0609668 19.11375 2.0609668 20.25 2.31445312 C21.7551956 2.66070038 23.25397987 3.03604451 24.74487305 3.43945312 C26.98849874 4.05125549 26.98849874 4.05125549 29.29614258 4.24804688 C32.10454387 4.73516038 33.67844535 5.31095535 36 7 C39.23425727 12.00797061 41.4290519 17.37451909 43.6875 22.875 C44.31535799 24.34243365 44.94619593 25.80859604 45.58007812 27.2734375 C46.81814253 30.14082567 48.0350177 33.01592839 49.23974609 35.89746094 C51.31567411 40.81485422 53.65649218 45.59312736 56.04223633 50.36767578 C57.05903506 53.16225236 57.08249457 54.28145792 56 57 C35.371109 40.45767462 14.89624109 23.10409968 0 1 C0 0.67 0 0.34 0 0 Z " fill="#A9DD92" transform="translate(121,275)"/>
<path d="M0 0 C6.28794231 -0.44486122 11.18443129 1.11172705 17.0625 3.25 C18.37057617 3.70052734 18.37057617 3.70052734 19.70507812 4.16015625 C31.27071288 8.27510579 31.27071288 8.27510579 34.78271484 13.80908203 C35.25402832 14.86466309 35.7253418 15.92024414 36.2109375 17.0078125 C36.99404297 18.73451172 36.99404297 18.73451172 37.79296875 20.49609375 C38.57607422 22.29240234 38.57607422 22.29240234 39.375 24.125 C39.92427558 25.34312797 40.47504402 26.56058395 41.02734375 27.77734375 C45 36.64861372 45 36.64861372 45 39 C43.16501953 38.61908203 43.16501953 38.61908203 41.29296875 38.23046875 C29.5706211 35.8260048 17.83469607 33.76717181 6 32 C-0.46654135 10.49718045 -0.46654135 10.49718045 0 0 Z " fill="#A9DC91" transform="translate(77,170)"/>
<path d="M0 0 C0.78503906 -0.020625 1.57007813 -0.04125 2.37890625 -0.0625 C7.07640479 -0.09418633 9.99972642 0.29296393 13.875 3.25 C13.41795382 8.82025034 11.8615309 12.75159037 8.875 17.5 C8.27268555 18.47779419 8.27268555 18.47779419 7.65820312 19.4753418 C1.48896566 29.27899159 -6.31601857 37.73950251 -14.125 46.25 C-19.61363636 43.55681818 -19.61363636 43.55681818 -21.125 41.25 C-20.86167999 38.88941352 -20.5185804 36.58975096 -20.125 34.25 C-19.8820246 32.63201618 -19.6426595 31.01348747 -19.40625 29.39453125 C-19.27903564 28.52981201 -19.15182129 27.66509277 -19.02075195 26.77416992 C-17.78029112 18.27460272 -16.6401157 9.82934082 -16.125 1.25 C-10.72220026 0.35673711 -5.47296468 0.03630491 0 0 Z " fill="#A8DB90" transform="translate(419.125,57.75)"/>
<path d="M0 0 C9.82486487 0.20903968 16.08704124 7.83990396 22.56640625 14.49609375 C23.03949219 14.99238281 23.51257813 15.48867188 24 16 C22.7141828 18.66783204 21.31628204 21.1500823 19.6796875 23.6171875 C19.23020752 24.30047119 18.78072754 24.98375488 18.31762695 25.68774414 C17.60352661 26.77043579 17.60352661 26.77043579 16.875 27.875 C11.93668837 35.42257008 7.36524516 43.10753668 3 51 C0.36 51 -2.28 51 -5 51 C-9.2485149 38.25445531 -7.31869534 17.67172748 -3 5 C-2.05334315 3.30246691 -1.06776802 1.62408412 0 0 Z " fill="#A7D98F" transform="translate(316,19)"/>
<path d="M0 0 C0.9075 0.845625 1.815 1.69125 2.75 2.5625 C5.54454564 5.14670349 7.7251776 5.44007333 11.5 5.5625 C16.38393665 5.34351914 19.21505184 4.21720594 23 1 C26 -1 26 -1 29.5 -0.875 C33 0 33 0 35 1.625 C36.55164303 5.31015219 36.22738072 7.18865988 35 11 C29.70135509 17.3872279 23.64865376 20.53669632 15.51171875 21.34765625 C6.03824885 21.71897819 -0.64099426 20.4587775 -7.9765625 14.35546875 C-11.06256477 11.23423815 -11.97531064 9.74068084 -12.125 5.25 C-11 2 -11 2 -9.375 0 C-5.82274138 -1.49568784 -3.68968026 -1.01784283 0 0 Z " fill="#050403" transform="translate(244,380)"/>
<path d="M0 0 C0.66 0 1.32 0 2 0 C4.20602764 4.81945754 6.41140627 9.63921136 8.61621094 14.45922852 C9.36473501 16.09537577 10.11342949 17.73144507 10.86230469 19.36743164 C11.94512152 21.73302548 13.02730399 24.09890868 14.109375 26.46484375 C14.43871033 27.18397446 14.76804565 27.90310516 15.10736084 28.64402771 C16.07517513 30.76106438 17.03761518 32.88049058 18 35 C18.56031921 36.21926682 18.56031921 36.21926682 19.13195801 37.46316528 C19.49865601 38.27010834 19.865354 39.07705139 20.24316406 39.90844727 C20.57930725 40.64354019 20.91545044 41.37863312 21.26177979 42.13600159 C22 44 22 44 22 46 C16.76376791 45.34031722 11.73769065 44.29935784 6.625 43 C5.90183594 42.82210937 5.17867188 42.64421875 4.43359375 42.4609375 C-0.87323778 41.12676222 -0.87323778 41.12676222 -2 40 C-2.25836712 35.75670001 -2.18525597 31.50020071 -2.1875 27.25 C-2.19974609 26.07566406 -2.21199219 24.90132812 -2.22460938 23.69140625 C-2.23793346 15.61700814 -1.46028554 7.93932012 0 0 Z " fill="#A8DB91" transform="translate(77,113)"/>
<path d="M0 0 C2.1875 1.50390625 2.1875 1.50390625 4 4 C4.40091196 6.96851721 4.56058386 9.48151228 4.5 12.4375 C4.51546875 13.18837891 4.5309375 13.93925781 4.546875 14.71289062 C4.51959442 18.59014367 4.23575698 20.60978155 2.1875 24 C0 26 0 26 -3.5 26.5625 C-7 26 -7 26 -9.1875 24.52734375 C-11.86846477 20.78901572 -11.58605034 17.48895924 -11.5 13 C-11.51546875 12.19304687 -11.5309375 11.38609375 -11.546875 10.5546875 C-11.52159126 6.72420158 -11.46042207 4.64300324 -9.1875 1.46875 C-5.96971145 -0.69176517 -3.78357952 -0.54051136 0 0 Z " fill="#030302" transform="translate(322,368)"/>
<path d="M0 0 C2.1953125 1.5 2.1953125 1.5 4 4 C4.34612503 6.98019513 4.4705768 9.53711928 4.375 12.5 C4.37371094 13.25925781 4.37242187 14.01851563 4.37109375 14.80078125 C4.25984889 21.85864977 4.25984889 21.85864977 2 25 C-1.12860495 26.56430248 -3.55602925 26.35627284 -7 26 C-10.07231729 23.21742081 -11.24358148 20.98702015 -11.53125 16.93359375 C-11.54179492 15.43489673 -11.53086866 13.93591619 -11.5 12.4375 C-11.51546875 11.68275391 -11.5309375 10.92800781 -11.546875 10.15039062 C-11.52176226 6.58752119 -11.30426908 4.41902573 -9.1875 1.50390625 C-5.97613157 -0.70390955 -3.80211705 -0.54315958 0 0 Z " fill="#030302" transform="translate(197,368)"/>
<path d="M0 0 C0.05406122 1.93719378 0.09282025 3.87481921 0.125 5.8125 C0.14820313 6.89144531 0.17140625 7.97039062 0.1953125 9.08203125 C0 12 0 12 -2 15 C-3.08796875 14.46890625 -4.1759375 13.9378125 -5.296875 13.390625 C-13.73231162 9.31960575 -21.99171407 5.63826486 -31 3 C-31 2.67 -31 2.34 -31 2 C-29.70964844 1.93941406 -28.41929687 1.87882813 -27.08984375 1.81640625 C-25.37238745 1.73194119 -23.65493998 1.64729623 -21.9375 1.5625 C-21.08994141 1.52318359 -20.24238281 1.48386719 -19.36914062 1.44335938 C-12.89183343 1.11824357 -6.47562317 -0.19623101 0 0 Z " fill="#F3B055" transform="translate(407,156)"/>
<path d="M0 0 C2.9375 2.0625 2.9375 2.0625 5 5 C5.06625411 8.8427383 4.81899419 10.99200716 2.375 14 C-1.11581787 15.46981805 -3.39148956 14.98413921 -7 14 C-9.5881216 11.74582958 -9.94242643 10.39479021 -10.4375 7 C-10 4 -10 4 -8.375 1.625 C-5.24988831 -0.51323431 -3.71837535 -0.6829669 0 0 Z " fill="#F0AF54" transform="translate(447,457)"/>
<path d="M0 0 C2.9375 2.0625 2.9375 2.0625 5 5 C5.06625411 8.8427383 4.81899419 10.99200716 2.375 14 C-1.11581787 15.46981805 -3.39148956 14.98413921 -7 14 C-9.5881216 11.74582958 -9.94242643 10.39479021 -10.4375 7 C-10 4 -10 4 -8.375 1.625 C-5.24988831 -0.51323431 -3.71837535 -0.6829669 0 0 Z " fill="#EEA63B" transform="translate(70,457)"/>
<path d="M0 0 C2.9375 2.0625 2.9375 2.0625 5 5 C5.06625411 8.8427383 4.81899419 10.99200716 2.375 14 C-1.11581787 15.46981805 -3.39148956 14.98413921 -7 14 C-9.5881216 11.74582958 -9.94242643 10.39479021 -10.4375 7 C-10 4 -10 4 -8.375 1.625 C-5.24988831 -0.51323431 -3.71837535 -0.6829669 0 0 Z " fill="#F3B86D" transform="translate(447,377)"/>
<path d="M0 0 C2.9375 2.0625 2.9375 2.0625 5 5 C5.06625411 8.8427383 4.81899419 10.99200716 2.375 14 C-1.11581787 15.46981805 -3.39148956 14.98413921 -7 14 C-9.5881216 11.74582958 -9.94242643 10.39479021 -10.4375 7 C-10 4 -10 4 -8.375 1.625 C-5.24988831 -0.51323431 -3.71837535 -0.6829669 0 0 Z " fill="#F0AF54" transform="translate(70,377)"/>
</svg>
